<?xml version="1.0" encoding="UTF-8"?>
<!DOCTYPE svg PUBLIC "-//W3C//DTD SVG 1.1//EN" "http://www.w3.org/Graphics/SVG/1.1/DTD/svg11.dtd">
<svg version="1.2" width="500mm" height="200mm" viewBox="0 0 50000 20000" preserveAspectRatio="xMidYMid" fill-rule="evenodd" stroke-width="28.222" stroke-linejoin="round" xmlns="http://www.w3.org/2000/svg" xmlns:ooo="http://xml.openoffice.org/svg/export" xmlns:xlink="http://www.w3.org/1999/xlink" xmlns:presentation="http://sun.com/xmlns/staroffice/presentation" xmlns:smil="http://www.w3.org/2001/SMIL20/" xmlns:anim="urn:oasis:names:tc:opendocument:xmlns:animation:1.0" xml:space="preserve">
 <defs class="ClipPathGroup">
  <clipPath id="presentation_clip_path" clipPathUnits="userSpaceOnUse">
   <rect x="0" y="0" width="50000" height="20000"/>
  </clipPath>
  <clipPath id="presentation_clip_path_shrink" clipPathUnits="userSpaceOnUse">
   <rect x="50" y="20" width="49900" height="19960"/>
  </clipPath>
 </defs>
 <defs class="TextShapeIndex">
  <g ooo:slide="id1" ooo:id-list="id3 id4 id5 id6 id7 id8 id9 id10 id11 id12 id13 id14 id15 id16 id17 id18 id19 id20 id21 id22 id23 id24 id25 id26 id27 id28 id29 id30 id31 id32 id33 id34 id35 id36 id37 id38 id39 id40 id41 id42 id43 id44 id45"/>
 </defs>
 <defs class="EmbeddedBulletChars">
  <g id="bullet-char-template-57356" transform="scale(0.00048828125,-0.00048828125)">
   <path d="M 580,1141 L 1163,571 580,0 -4,571 580,1141 Z"/>
  </g>
  <g id="bullet-char-template-57354" transform="scale(0.00048828125,-0.00048828125)">
   <path d="M 8,1128 L 1137,1128 1137,0 8,0 8,1128 Z"/>
  </g>
  <g id="bullet-char-template-10146" transform="scale(0.00048828125,-0.00048828125)">
   <path d="M 174,0 L 602,739 174,1481 1456,739 174,0 Z M 1358,739 L 309,1346 659,739 1358,739 Z"/>
  </g>
  <g id="bullet-char-template-10132" transform="scale(0.00048828125,-0.00048828125)">
   <path d="M 2015,739 L 1276,0 717,0 1260,543 174,543 174,936 1260,936 717,1481 1274,1481 2015,739 Z"/>
  </g>
  <g id="bullet-char-template-10007" transform="scale(0.00048828125,-0.00048828125)">
   <path d="M 0,-2 C -7,14 -16,27 -25,37 L 356,567 C 262,823 215,952 215,954 215,979 228,992 255,992 264,992 276,990 289,987 310,991 331,999 354,1012 L 381,999 492,748 772,1049 836,1024 860,1049 C 881,1039 901,1025 922,1006 886,937 835,863 770,784 769,783 710,716 594,584 L 774,223 C 774,196 753,168 711,139 L 727,119 C 717,90 699,76 672,76 641,76 570,178 457,381 L 164,-76 C 142,-110 111,-127 72,-127 30,-127 9,-110 8,-76 1,-67 -2,-52 -2,-32 -2,-23 -1,-13 0,-2 Z"/>
  </g>
  <g id="bullet-char-template-10004" transform="scale(0.00048828125,-0.00048828125)">
   <path d="M 285,-33 C 182,-33 111,30 74,156 52,228 41,333 41,471 41,549 55,616 82,672 116,743 169,778 240,778 293,778 328,747 346,684 L 369,508 C 377,444 397,411 428,410 L 1163,1116 C 1174,1127 1196,1133 1229,1133 1271,1133 1292,1118 1292,1087 L 1292,965 C 1292,929 1282,901 1262,881 L 442,47 C 390,-6 338,-33 285,-33 Z"/>
  </g>
  <g id="bullet-char-template-9679" transform="scale(0.00048828125,-0.00048828125)">
   <path d="M 813,0 C 632,0 489,54 383,161 276,268 223,411 223,592 223,773 276,916 383,1023 489,1130 632,1184 813,1184 992,1184 1136,1130 1245,1023 1353,916 1407,772 1407,592 1407,412 1353,268 1245,161 1136,54 992,0 813,0 Z"/>
  </g>
  <g id="bullet-char-template-8226" transform="scale(0.00048828125,-0.00048828125)">
   <path d="M 346,457 C 273,457 209,483 155,535 101,586 74,649 74,723 74,796 101,859 155,911 209,963 273,989 346,989 419,989 480,963 531,910 582,859 608,796 608,723 608,648 583,586 532,535 482,483 420,457 346,457 Z"/>
  </g>
  <g id="bullet-char-template-8211" transform="scale(0.00048828125,-0.00048828125)">
   <path d="M -4,459 L 1135,459 1135,606 -4,606 -4,459 Z"/>
  </g>
  <g id="bullet-char-template-61548" transform="scale(0.00048828125,-0.00048828125)">
   <path d="M 173,740 C 173,903 231,1043 346,1159 462,1274 601,1332 765,1332 928,1332 1067,1274 1183,1159 1299,1043 1357,903 1357,740 1357,577 1299,437 1183,322 1067,206 928,148 765,148 601,148 462,206 346,322 231,437 173,577 173,740 Z"/>
  </g>
 </defs>
 <g>
  <g id="id2" class="Master_Slide">
   <g id="bg-id2" class="Background"/>
   <g id="bo-id2" class="BackgroundObjects"/>
  </g>
 </g>
 <g class="SlideGroup">
  <g>
   <g id="container-id1">
    <g id="id1" class="Slide" clip-path="url(#presentation_clip_path)">
     <g class="Page">
      <g class="com.sun.star.drawing.ClosedBezierShape">
       <g id="id3">
        <rect class="BoundingBox" stroke="none" fill="none" x="2534" y="8559" width="20732" height="5122"/>
        <g>
         <defs>
          <linearGradient id="gradient1" x1="2924" y1="7488" x2="22874" y2="14750" gradientUnits="userSpaceOnUse">
           <stop offset="0" style="stop-color:rgb(212,179,144)"/>
           <stop offset="1" style="stop-color:rgb(159,124,86)"/>
          </linearGradient>
         </defs>
         <path style="fill:url(#gradient1)" d="M 11027,9627 L 11032,9601 11038,9578 11042,9567 11047,9556 11052,9547 11057,9538 11062,9529 11068,9522 11074,9515 11080,9508 11087,9502 11094,9497 11101,9492 11109,9488 11125,9482 11142,9477 11159,9474 11175,9473 11184,9473 11192,9473 11200,9474 11209,9476 11217,9477 11225,9480 11233,9482 11242,9486 11258,9492 11275,9501 11290,9510 11305,9522 11319,9534 11333,9549 11346,9564 11358,9582 11369,9600 11379,9618 11386,9638 11392,9657 11397,9678 11399,9698 11400,9720 11399,9742 11389,9791 11379,9847 11358,9982 11347,10058 11337,10138 11319,10316 11294,10711 11283,11134 11284,11202 11288,11275 11294,11353 11303,11436 11314,11521 11328,11605 11345,11689 11365,11774 11387,11855 11412,11933 11440,12008 11470,12079 11487,12112 11505,12144 11525,12173 11545,12199 11567,12223 11589,12244 11613,12263 11637,12280 11650,12287 11663,12294 11677,12299 11691,12304 11705,12308 11720,12312 11735,12314 11750,12316 11765,12317 11781,12317 11813,12315 11846,12311 11879,12303 11897,12297 11915,12291 11951,12274 11989,12252 12028,12225 12069,12194 12111,12157 12155,12116 12200,12069 12286,11975 12373,11875 12461,11768 12549,11653 12637,11534 12723,11413 12805,11290 12886,11166 13038,10907 13110,10777 13178,10647 13244,10519 13305,10394 13361,10273 13411,10155 13414,10150 13417,10145 13420,10141 13423,10138 13426,10134 13429,10132 13432,10130 13436,10128 13439,10127 13443,10127 13447,10127 13451,10128 13455,10130 13460,10132 13464,10134 13469,10137 13478,10145 13482,10149 13485,10152 13489,10156 13491,10160 13493,10163 13495,10167 13497,10170 13498,10174 13498,10177 13499,10181 13498,10184 13498,10187 13497,10191 13496,10194 13387,10434 13326,10561 13258,10693 12961,11230 12882,11362 12800,11491 12715,11618 12627,11742 12539,11860 12450,11970 12360,12072 12270,12168 12154,12278 12098,12325 12044,12367 11992,12404 11941,12435 11892,12461 11845,12481 11802,12496 11760,12508 11720,12516 11680,12521 11641,12522 11604,12520 11568,12515 11532,12506 11272,12545 11010,12560 10748,12553 10484,12524 10220,12477 9955,12412 9424,12235 8893,12009 8363,11746 7315,11164 6509,10709 6114,10502 5727,10318 5347,10163 4976,10044 4795,10000 4615,9968 4439,9947 4265,9941 4012,9958 3774,10008 3553,10089 3351,10198 3168,10331 3009,10486 2873,10661 2763,10852 2680,11057 2627,11273 2605,11498 2617,11728 2663,11961 2745,12194 2867,12425 3028,12650 2851,12444 2715,12225 2618,11995 2558,11759 2535,11521 2546,11283 2591,11051 2668,10827 2776,10615 2913,10420 3077,10244 3268,10092 3483,9967 3722,9874 3983,9815 4265,9794 4446,9801 4628,9822 4814,9855 5001,9899 5382,10020 5771,10177 6166,10365 6568,10575 7386,11036 8376,11588 8874,11839 9373,12059 9871,12236 10119,12304 10367,12357 10613,12394 10858,12413 11102,12412 11344,12389 11324,12367 11304,12343 11284,12318 11264,12291 11239,12253 11215,12213 11192,12172 11170,12129 11149,12085 11129,12040 11093,11944 11062,11845 11034,11743 11010,11639 10990,11532 10973,11426 10960,11323 10950,11224 10942,11130 10936,11012 10933,10896 10933,10665 10934,10551 10937,10441 10949,10233 10965,10043 10974,9956 10985,9874 11006,9734 11016,9676 11027,9627 Z M 14303,11280 L 14788,11220 15273,11228 15757,11295 16240,11413 16722,11572 17202,11765 18154,12212 19092,12684 20012,13109 20464,13282 20909,13417 21348,13504 21780,13535 22054,13524 22304,13493 22529,13442 22725,13372 22892,13285 22964,13235 23028,13181 23083,13123 23129,13062 23167,12997 23195,12928 23214,12856 23223,12781 23222,12703 23211,12621 23189,12537 23157,12451 23114,12361 23059,12269 22915,12079 22722,11881 22480,11675 22185,11463 22481,11677 22728,11887 22926,12092 23077,12292 23183,12484 23219,12577 23245,12667 23260,12755 23264,12839 23259,12921 23243,13000 23218,13075 23183,13147 23138,13215 23084,13280 23021,13340 22949,13395 22869,13447 22779,13494 22576,13573 22341,13631 22075,13667 21780,13679 21346,13648 20905,13562 20458,13429 20005,13259 19085,12838 18150,12369 17205,11923 16730,11730 16255,11569 15780,11449 15305,11378 14832,11364 14360,11418 14387,11519 14410,11621 14428,11723 14440,11825 14451,11933 14456,12039 14455,12142 14447,12243 14442,12292 14435,12341 14427,12389 14416,12435 14404,12482 14391,12527 14375,12572 14358,12616 14339,12659 14319,12701 14297,12741 14274,12780 14249,12817 14222,12853 14194,12887 14164,12920 14130,12954 14094,12986 14058,13015 14020,13041 13981,13066 13940,13087 13898,13107 13855,13123 13812,13137 13769,13147 13727,13154 13685,13157 13643,13158 13602,13156 13561,13150 13521,13142 13481,13130 13442,13114 13405,13094 13370,13070 13336,13043 13304,13012 13274,12977 13245,12938 13217,12896 13193,12849 13172,12798 13154,12742 13139,12683 13128,12618 13119,12550 13114,12476 13113,12365 13119,12261 13133,12164 13154,12072 13182,11987 13218,11908 13261,11834 13310,11765 13367,11702 13430,11643 13500,11589 13577,11539 13661,11493 13750,11451 13949,11377 13895,11256 13841,11142 13720,10908 13460,10414 13398,10291 13342,10168 13290,10045 13245,9922 13223,9861 13203,9801 13187,9740 13172,9679 13160,9619 13151,9559 13144,9499 13139,9440 13137,9360 13139,9285 13145,9214 13155,9148 13170,9086 13189,9029 13200,9002 13212,8976 13226,8951 13240,8928 13270,8885 13301,8846 13332,8812 13364,8784 13380,8771 13396,8759 13412,8749 13429,8740 13445,8732 13462,8725 13479,8719 13496,8715 13514,8712 13531,8711 13548,8710 13564,8711 13581,8713 13597,8717 13613,8722 13628,8728 13644,8735 13659,8744 13674,8754 13689,8765 13703,8778 13717,8792 13745,8825 13758,8843 13771,8863 13781,8884 13791,8906 13800,8930 13807,8955 13813,8982 13819,9010 13825,9070 13827,9136 13824,9207 13816,9284 13811,9328 13805,9371 13788,9456 13767,9539 13743,9620 13636,9943 13705,10121 13782,10296 13869,10467 13965,10633 14057,10792 14143,10953 14226,11115 14303,11280 Z M 11335,8559 L 11358,8560 11379,8563 11399,8567 11409,8570 11418,8574 11428,8578 11437,8582 11445,8587 11454,8592 11462,8598 11470,8605 11486,8619 11494,8627 11501,8635 11507,8644 11513,8653 11519,8663 11524,8673 11528,8683 11532,8694 11539,8717 11544,8741 11547,8767 11548,8795 11547,8821 11544,8845 11541,8857 11538,8868 11535,8879 11531,8890 11526,8900 11521,8910 11516,8919 11509,8928 11503,8937 11495,8946 11488,8954 11479,8962 11463,8978 11454,8985 11445,8992 11436,8998 11427,9003 11417,9008 11407,9012 11397,9016 11387,9019 11377,9022 11366,9024 11344,9027 11322,9028 11298,9026 11275,9021 11254,9014 11233,9006 11213,8996 11204,8990 11195,8983 11186,8976 11178,8969 11161,8953 11154,8944 11146,8936 11139,8927 11133,8917 11127,8907 11122,8897 11117,8887 11113,8876 11106,8853 11101,8829 11098,8803 11097,8777 11099,8749 11102,8723 11104,8710 11107,8699 11111,8688 11115,8677 11120,8667 11125,8657 11131,8648 11137,8639 11144,8631 11152,8624 11160,8616 11168,8610 11187,8598 11206,8587 11225,8579 11246,8572 11267,8566 11289,8562 11312,8560 11335,8559 Z M 13585,9826 L 13602,9754 13620,9683 13640,9615 13663,9547 13674,9514 13684,9480 13693,9445 13700,9410 13712,9339 13720,9266 13725,9228 13728,9193 13729,9159 13729,9127 13728,9098 13725,9070 13721,9045 13716,9021 13710,9000 13704,8981 13697,8964 13690,8949 13686,8943 13682,8937 13678,8931 13674,8926 13670,8922 13665,8918 13661,8914 13656,8912 13651,8909 13647,8908 13642,8907 13637,8906 13632,8907 13627,8908 13622,8909 13617,8912 13612,8914 13606,8918 13601,8922 13596,8927 13590,8932 13585,8939 13574,8953 13564,8970 13554,8990 13545,9013 13536,9038 13528,9066 13521,9097 13514,9131 13508,9168 13500,9209 13494,9250 13490,9291 13489,9332 13489,9373 13491,9415 13495,9456 13501,9497 13516,9581 13535,9663 13558,9745 13585,9826 Z M 14017,11527 L 13822,11588 13734,11621 13652,11657 13577,11696 13508,11740 13447,11787 13391,11839 13343,11896 13301,11959 13265,12027 13237,12102 13215,12184 13201,12274 13193,12371 13192,12476 13195,12549 13202,12617 13213,12679 13226,12736 13243,12787 13253,12811 13264,12834 13276,12855 13288,12875 13301,12893 13315,12911 13347,12941 13379,12967 13395,12978 13411,12987 13428,12996 13445,13004 13462,13010 13479,13015 13496,13019 13514,13022 13532,13024 13550,13025 13569,13024 13588,13023 13606,13020 13625,13015 13644,13010 13663,13004 13681,12996 13700,12987 13737,12966 13774,12940 13811,12910 13848,12875 13885,12835 13919,12792 13951,12745 13980,12694 14006,12638 14029,12579 14050,12516 14067,12449 14081,12378 14090,12323 14097,12268 14102,12212 14105,12156 14106,12100 14105,12043 14102,11986 14097,11928 14085,11820 14069,11722 14059,11675 14047,11627 14017,11527 Z"/>
        </g>
       </g>
      </g>
      <g class="com.sun.star.drawing.ClosedBezierShape">
       <g id="id4">
        <rect class="BoundingBox" stroke="none" fill="none" x="6668" y="6250" width="12313" height="7501"/>
        <g>
         <defs>
          <linearGradient id="gradient2" x1="6182" y1="7583" x2="19464" y2="12417" gradientUnits="userSpaceOnUse">
           <stop offset="0" style="stop-color:rgb(212,179,144)"/>
           <stop offset="1" style="stop-color:rgb(159,124,86)"/>
          </linearGradient>
         </defs>
         <path style="fill:url(#gradient2)" d="M 6813,13750 L 6750,13425 6705,13093 6678,12756 6668,12412 6672,12197 6683,11984 6701,11772 6726,11562 6796,11603 6772,11802 6754,12004 6743,12208 6739,12412 6749,12754 6779,13091 6827,13422 6893,13748 6813,13750 Z M 7105,10126 L 7291,9708 7505,9307 7748,8924 8018,8561 8313,8220 8632,7901 8973,7605 9335,7336 9718,7092 10119,6877 10536,6691 10970,6536 11418,6413 11878,6323 12351,6269 12833,6250 13432,6279 14015,6363 14579,6500 15122,6688 15640,6924 16131,7204 16592,7527 17022,7890 17416,8290 17773,8724 18090,9190 18364,9685 18593,10207 18773,10752 18903,11319 18979,11905 18902,11864 18822,11304 18690,10761 18509,10240 18281,9741 18009,9267 17695,8822 17342,8407 16953,8025 16530,7678 16075,7370 15592,7102 15082,6877 14549,6697 13995,6566 13422,6485 12833,6458 12359,6476 11894,6528 11441,6614 11001,6732 10574,6880 10163,7058 9769,7265 9392,7498 9035,7756 8698,8039 8384,8345 8092,8672 7826,9020 7585,9386 7372,9771 7188,10171 7167,10161 7146,10149 7105,10126 Z M 18909,13464 L 18854,13750 18774,13748 18838,13430 18909,13464 Z"/>
        </g>
       </g>
      </g>
      <g class="com.sun.star.drawing.ClosedBezierShape">
       <g id="id5">
        <rect class="BoundingBox" stroke="none" fill="none" x="27275" y="11769" width="14963" height="725"/>
        <g>
         <defs>
          <linearGradient id="gradient3" x1="28033" y1="9685" x2="41477" y2="14577" gradientUnits="userSpaceOnUse">
           <stop offset="0" style="stop-color:rgb(212,179,144)"/>
           <stop offset="1" style="stop-color:rgb(159,124,86)"/>
          </linearGradient>
         </defs>
         <path style="fill:url(#gradient3)" d="M 27668,12193 L 27680,12196 27692,12200 27703,12205 27713,12211 27723,12217 27732,12225 27736,12229 27740,12233 27743,12237 27746,12241 27753,12251 27760,12261 27765,12271 27770,12282 27773,12294 27776,12306 27778,12319 27778,12332 27778,12341 27777,12350 27776,12358 27774,12367 27772,12375 27770,12382 27767,12390 27763,12397 27759,12404 27755,12411 27751,12417 27745,12423 27740,12429 27734,12434 27728,12439 27721,12444 27705,12453 27688,12461 27669,12468 27649,12474 27627,12479 27604,12483 27580,12485 27554,12486 27275,12486 27275,11918 27536,11918 27561,11919 27584,11921 27606,11924 27626,11929 27644,11935 27661,11942 27677,11950 27684,11955 27691,11960 27698,11964 27704,11969 27710,11975 27715,11980 27720,11986 27725,11992 27729,11998 27732,12004 27736,12011 27738,12018 27741,12025 27743,12033 27744,12040 27745,12048 27746,12056 27746,12065 27746,12076 27745,12086 27743,12096 27741,12106 27738,12116 27735,12125 27730,12134 27726,12143 27719,12151 27713,12158 27707,12165 27700,12172 27692,12178 27685,12183 27677,12188 27668,12193 Z M 27357,11985 L 27357,12168 27529,12168 27545,12167 27559,12166 27573,12164 27586,12161 27598,12158 27608,12153 27618,12148 27627,12143 27631,12139 27635,12136 27639,12133 27643,12129 27646,12126 27649,12122 27652,12118 27654,12113 27656,12109 27658,12104 27660,12100 27661,12095 27662,12090 27663,12085 27664,12079 27664,12074 27664,12069 27663,12064 27662,12059 27661,12054 27660,12049 27658,12045 27656,12040 27654,12036 27652,12031 27649,12027 27646,12024 27643,12020 27639,12016 27635,12013 27631,12010 27627,12008 27623,12005 27618,12002 27613,12000 27608,11997 27598,11993 27586,11990 27573,11988 27559,11986 27545,11985 27529,11985 27357,11985 Z M 27552,12419 L 27568,12419 27584,12418 27599,12416 27612,12413 27625,12410 27636,12406 27647,12401 27657,12396 27661,12393 27665,12390 27669,12387 27672,12383 27675,12379 27678,12375 27680,12371 27683,12367 27685,12362 27686,12358 27688,12353 27689,12348 27690,12343 27691,12337 27691,12325 27691,12314 27689,12303 27686,12293 27683,12284 27678,12275 27672,12268 27665,12261 27657,12255 27647,12249 27637,12244 27626,12241 27613,12237 27600,12235 27585,12233 27552,12232 27357,12232 27357,12419 27552,12419 Z M 28169,11918 L 28252,11918 28252,12486 28169,12486 28169,11918 Z M 28951,12492 L 28929,12492 28908,12490 28887,12487 28867,12482 28848,12477 28829,12470 28811,12462 28793,12454 28775,12444 28758,12433 28742,12421 28728,12409 28714,12395 28701,12381 28690,12365 28679,12348 28670,12332 28662,12316 28656,12298 28650,12280 28646,12262 28643,12242 28641,12222 28640,12202 28641,12182 28643,12162 28646,12142 28650,12123 28656,12105 28662,12087 28670,12070 28679,12053 28690,12037 28701,12022 28714,12008 28728,11995 28742,11983 28758,11971 28775,11960 28793,11950 28811,11942 28829,11934 28848,11927 28867,11922 28887,11917 28908,11914 28929,11912 28951,11912 28973,11912 28995,11914 29015,11917 29035,11922 29055,11927 29073,11934 29092,11942 29109,11950 29127,11960 29144,11971 29159,11982 29174,11995 29187,12008 29199,12022 29210,12036 29221,12051 29231,12068 29239,12086 29246,12104 29252,12123 29256,12142 29260,12162 29262,12182 29262,12202 29262,12222 29260,12242 29256,12262 29252,12281 29246,12299 29239,12317 29231,12334 29221,12351 29210,12366 29199,12381 29187,12396 29174,12409 29159,12421 29144,12433 29127,12444 29109,12454 29092,12462 29073,12470 29055,12477 29035,12482 29015,12487 28995,12490 28973,12492 28951,12492 Z M 28951,12419 L 28967,12419 28983,12417 28998,12415 29013,12412 29027,12408 29041,12404 29055,12398 29068,12392 29080,12384 29092,12376 29103,12368 29113,12358 29123,12348 29132,12337 29140,12326 29148,12314 29154,12302 29160,12289 29165,12275 29170,12261 29173,12247 29176,12232 29177,12217 29178,12202 29177,12187 29176,12173 29173,12158 29170,12143 29165,12129 29160,12115 29154,12102 29148,12090 29140,12078 29132,12066 29123,12055 29113,12045 29103,12036 29092,12027 29080,12019 29068,12012 29055,12005 29041,11999 29027,11994 29013,11991 28998,11988 28983,11986 28967,11985 28951,11985 28936,11985 28920,11986 28905,11988 28890,11991 28876,11994 28862,11999 28848,12005 28835,12012 28821,12019 28809,12027 28798,12036 28787,12045 28778,12055 28769,12066 28760,12078 28752,12090 28749,12096 28745,12102 28739,12115 28735,12129 28731,12143 28728,12158 28726,12173 28725,12187 28725,12202 28725,12217 28726,12232 28728,12247 28731,12261 28735,12275 28739,12289 28745,12302 28752,12314 28760,12326 28769,12337 28778,12348 28787,12358 28798,12368 28809,12376 28821,12384 28835,12392 28848,12398 28862,12404 28876,12408 28890,12412 28905,12415 28920,12417 28936,12419 28951,12419 Z M 30193,12486 L 30191,12072 29980,12415 29941,12415 29729,12074 29729,12486 29651,12486 29651,11918 29720,11918 29964,12316 30204,11918 30273,11918 30273,12486 30193,12486 Z M 31135,12415 L 31135,12486 30710,12486 30710,11918 31121,11918 31121,11989 30792,11989 30792,12165 31087,12165 31087,12232 30792,12232 30792,12415 31135,12415 Z M 31528,11918 L 31775,11918 31798,11919 31821,11921 31842,11924 31864,11928 31884,11933 31904,11940 31924,11947 31942,11955 31959,11964 31975,11974 31990,11985 32004,11997 32017,12010 32030,12024 32041,12038 32052,12053 32061,12070 32069,12087 32076,12105 32082,12123 32086,12142 32088,12162 32090,12182 32091,12202 32090,12222 32088,12242 32086,12262 32082,12280 32076,12298 32069,12316 32061,12332 32052,12348 32041,12364 32030,12379 32017,12393 32004,12406 31990,12419 31975,12430 31959,12440 31942,12449 31924,12457 31904,12464 31884,12471 31864,12476 31842,12480 31821,12483 31798,12485 31775,12486 31528,12486 31528,11918 Z M 31771,12415 L 31788,12414 31805,12413 31822,12410 31838,12407 31853,12403 31868,12398 31882,12393 31896,12387 31910,12381 31922,12374 31933,12365 31944,12357 31953,12347 31962,12337 31971,12326 31979,12314 31986,12302 31992,12289 31997,12276 32001,12262 32004,12248 32007,12233 32008,12218 32008,12202 32008,12187 32007,12172 32004,12157 32001,12143 31997,12129 31992,12115 31986,12102 31979,12090 31971,12078 31962,12067 31953,12057 31944,12047 31933,12039 31922,12030 31910,12023 31896,12017 31882,12010 31868,12004 31853,11999 31838,11995 31822,11993 31805,11991 31788,11990 31771,11989 31613,11989 31613,12415 31771,12415 Z M 32479,11918 L 32564,11918 32564,12486 32479,12486 32479,11918 Z M 33261,12492 L 33239,12492 33218,12490 33197,12487 33177,12482 33158,12477 33139,12470 33121,12462 33104,12454 33087,12444 33071,12433 33055,12421 33041,12409 33028,12396 33015,12381 33004,12366 32994,12351 32984,12334 32976,12317 32969,12299 32963,12281 32959,12262 32955,12242 32953,12222 32953,12202 32953,12182 32955,12162 32959,12142 32963,12123 32969,12104 32976,12086 32984,12068 32994,12051 33004,12036 33015,12022 33028,12008 33041,11995 33055,11982 33071,11971 33087,11960 33104,11950 33122,11942 33141,11934 33160,11927 33179,11922 33199,11917 33219,11914 33240,11912 33261,11912 33279,11912 33296,11913 33313,11915 33329,11918 33344,11921 33359,11925 33373,11930 33387,11934 33401,11941 33415,11947 33428,11955 33441,11962 33453,11971 33464,11980 33475,11990 33486,12001 33431,12051 33413,12036 33395,12022 33376,12011 33366,12006 33356,12002 33346,11998 33335,11994 33324,11991 33313,11989 33290,11986 33266,11985 33250,11985 33234,11986 33219,11988 33204,11991 33189,11994 33175,11999 33161,12005 33147,12012 33135,12019 33123,12027 33112,12036 33101,12045 33091,12055 33082,12066 33074,12078 33067,12090 33060,12102 33053,12115 33048,12129 33043,12143 33040,12158 33037,12173 33036,12187 33035,12202 33036,12217 33037,12232 33040,12247 33043,12261 33048,12275 33053,12289 33060,12302 33067,12314 33074,12326 33082,12337 33091,12348 33101,12358 33112,12368 33123,12376 33135,12384 33147,12392 33161,12398 33175,12404 33189,12408 33204,12412 33219,12415 33234,12417 33250,12419 33266,12419 33290,12418 33312,12415 33323,12413 33334,12410 33345,12406 33355,12402 33365,12398 33375,12392 33385,12387 33395,12381 33413,12367 33431,12351 33486,12403 33475,12414 33464,12424 33453,12433 33441,12441 33428,12449 33415,12456 33401,12462 33387,12467 33373,12473 33359,12478 33344,12482 33329,12486 33313,12489 33296,12491 33279,12492 33261,12492 Z M 33865,11918 L 33947,11918 33947,12486 33865,12486 33865,11918 Z M 34889,11918 L 34889,12486 34821,12486 34469,12063 34469,12486 34384,12486 34384,11918 34453,11918 34807,12341 34807,11918 34889,11918 Z M 35699,12344 L 35388,12344 35324,12486 35239,12486 35502,11918 35587,11918 35852,12486 35763,12486 35699,12344 Z M 35671,12280 L 35546,12001 35418,12280 35671,12280 Z M 36849,12415 L 36849,12486 36424,12486 36424,11918 36838,11918 36838,11989 36508,11989 36508,12165 36801,12165 36801,12232 36508,12232 36508,12415 36849,12415 Z M 37416,12492 L 37399,12492 37383,12491 37366,12489 37350,12487 37335,12484 37319,12480 37304,12475 37288,12470 37273,12465 37259,12460 37246,12454 37233,12448 37222,12441 37211,12434 37201,12427 37192,12419 37224,12357 37232,12364 37241,12371 37251,12377 37261,12383 37272,12389 37283,12394 37295,12399 37306,12403 37320,12408 37334,12412 37347,12415 37360,12417 37374,12419 37388,12421 37402,12421 37416,12421 37434,12421 37450,12420 37465,12418 37479,12416 37492,12413 37504,12409 37509,12407 37514,12404 37519,12402 37524,12399 37532,12392 37539,12386 37542,12382 37545,12379 37548,12375 37550,12371 37553,12367 37555,12363 37556,12359 37558,12355 37559,12351 37560,12346 37560,12342 37560,12337 37560,12329 37559,12322 37558,12319 37557,12316 37556,12312 37555,12309 37554,12306 37552,12303 37550,12300 37549,12297 37544,12292 37540,12287 37530,12279 37525,12276 37519,12272 37513,12268 37506,12265 37499,12262 37492,12259 37412,12239 37351,12223 37326,12216 37304,12209 37294,12204 37284,12199 37275,12194 37266,12188 37257,12182 37249,12175 37241,12168 37233,12161 37227,12152 37221,12142 37217,12132 37213,12122 37210,12110 37208,12099 37206,12087 37206,12074 37206,12063 37207,12052 37209,12041 37212,12031 37215,12021 37219,12011 37224,12001 37229,11992 37236,11983 37244,11974 37252,11966 37261,11959 37271,11952 37281,11946 37292,11940 37304,11934 37317,11930 37331,11925 37346,11921 37361,11918 37377,11915 37394,11913 37411,11912 37430,11912 37443,11912 37456,11912 37468,11914 37481,11915 37494,11917 37507,11919 37520,11922 37533,11925 37545,11928 37556,11932 37568,11936 37579,11940 37589,11945 37599,11950 37608,11956 37617,11962 37590,12026 37571,12016 37552,12007 37532,11999 37512,11992 37491,11987 37470,11984 37450,11983 37430,11982 37413,11983 37396,11984 37381,11985 37368,11988 37355,11991 37343,11995 37332,12000 37327,12002 37322,12005 37318,12008 37314,12012 37311,12015 37307,12019 37304,12022 37302,12026 37299,12030 37297,12034 37295,12038 37293,12043 37291,12047 37290,12052 37289,12057 37289,12062 37288,12067 37288,12072 37288,12078 37289,12085 37290,12091 37291,12094 37292,12097 37293,12100 37295,12103 37296,12105 37298,12108 37300,12110 37302,12113 37304,12115 37306,12117 37312,12122 37317,12126 37324,12130 37330,12134 37336,12138 37343,12141 37350,12144 37357,12147 37373,12153 37392,12158 37414,12164 37425,12166 37437,12168 37542,12197 37553,12202 37563,12207 37573,12213 37582,12219 37590,12225 37598,12232 37606,12239 37613,12245 37619,12254 37625,12263 37630,12272 37635,12283 37638,12294 37640,12305 37642,12317 37643,12330 37642,12341 37641,12352 37639,12362 37636,12373 37632,12383 37627,12392 37622,12401 37615,12410 37612,12415 37609,12419 37606,12424 37602,12428 37594,12436 37585,12444 37575,12451 37564,12458 37552,12464 37540,12470 37527,12474 37514,12479 37500,12483 37485,12486 37469,12489 37452,12491 37435,12492 37416,12492 Z M 38132,11989 L 37931,11989 37931,11918 38415,11918 38415,11989 38216,11989 38216,12486 38132,12486 38132,11989 Z M 39193,12415 L 39193,12486 38768,12486 38768,11918 39181,11918 39181,11989 38850,11989 38850,12165 39145,12165 39145,12232 38850,12232 38850,12415 39193,12415 Z M 39026,11770 L 39129,11770 38987,11873 38912,11873 39026,11770 Z M 39705,11989 L 39504,11989 39504,11918 39989,11918 39989,11989 39787,11989 39787,12486 39705,12486 39705,11989 Z M 40338,11918 L 40423,11918 40423,12486 40338,12486 40338,11918 Z M 41120,12492 L 41099,12492 41078,12490 41058,12487 41038,12482 41019,12477 41000,12470 40981,12462 40963,12454 40945,12444 40929,12433 40914,12421 40900,12409 40886,12396 40874,12381 40862,12366 40851,12351 40842,12334 40834,12317 40827,12299 40822,12281 40817,12262 40814,12242 40812,12222 40812,12202 40812,12182 40814,12162 40817,12142 40822,12123 40827,12104 40834,12086 40842,12068 40851,12051 40862,12036 40874,12022 40886,12008 40900,11995 40914,11982 40929,11971 40945,11960 40963,11950 40981,11942 41000,11934 41019,11927 41038,11922 41059,11917 41079,11914 41101,11912 41123,11912 41140,11912 41156,11913 41172,11915 41188,11918 41204,11921 41219,11925 41234,11930 41248,11934 41262,11941 41275,11947 41288,11955 41301,11962 41313,11971 41324,11980 41335,11990 41345,12001 41290,12051 41273,12036 41255,12022 41246,12016 41236,12011 41226,12006 41216,12002 41205,11998 41195,11994 41173,11989 41149,11986 41125,11985 41109,11985 41093,11986 41078,11988 41063,11991 41049,11994 41035,11999 41021,12005 41008,12012 40995,12019 40983,12027 40972,12036 40961,12045 40952,12055 40942,12066 40934,12078 40926,12090 40919,12102 40912,12115 40907,12129 40902,12143 40899,12158 40896,12173 40895,12187 40894,12202 40895,12217 40896,12232 40899,12247 40902,12261 40907,12275 40912,12289 40919,12302 40926,12314 40934,12326 40942,12337 40952,12348 40961,12358 40972,12368 40983,12376 40995,12384 41008,12392 41021,12398 41035,12404 41049,12408 41063,12412 41078,12415 41093,12417 41109,12419 41125,12419 41149,12418 41173,12415 41184,12413 41195,12410 41205,12406 41216,12402 41226,12398 41236,12392 41246,12387 41255,12381 41264,12374 41273,12367 41290,12351 41345,12403 41335,12414 41324,12424 41313,12433 41301,12441 41288,12449 41275,12456 41262,12462 41248,12467 41233,12473 41218,12478 41202,12482 41186,12486 41170,12489 41154,12491 41137,12492 41120,12492 Z M 42083,12344 L 41772,12344 41708,12486 41621,12486 41886,11918 41969,11918 42236,12486 42147,12486 42083,12344 Z M 42053,12280 L 41928,12001 41802,12280 42053,12280 Z"/>
        </g>
       </g>
      </g>
      <g class="com.sun.star.drawing.PolyPolygonShape">
       <g id="id6">
        <rect class="BoundingBox" stroke="none" fill="none" x="25043" y="9929" width="167" height="1392"/>
        <g>
         <defs>
          <linearGradient id="gradient4" x1="24828" y1="10516" x2="25422" y2="10732" gradientUnits="userSpaceOnUse">
           <stop offset="0" style="stop-color:rgb(212,179,144)"/>
           <stop offset="1" style="stop-color:rgb(159,124,86)"/>
          </linearGradient>
         </defs>
         <path style="fill:url(#gradient4)" d="M 25043,9929 L 25208,9929 25208,11319 25043,11319 25043,9929 Z"/>
        </g>
       </g>
      </g>
      <g class="com.sun.star.drawing.PolyPolygonShape">
       <g id="id7">
        <rect class="BoundingBox" stroke="none" fill="none" x="25208" y="11319" width="2" height="2"/>
       </g>
      </g>
      <g class="com.sun.star.drawing.PolyPolygonShape">
       <g id="id8">
        <rect class="BoundingBox" stroke="none" fill="none" x="25701" y="9929" width="995" height="1392"/>
        <g>
         <defs>
          <linearGradient id="gradient5" x1="25536" y1="10383" x2="26860" y2="10865" gradientUnits="userSpaceOnUse">
           <stop offset="0" style="stop-color:rgb(212,179,144)"/>
           <stop offset="1" style="stop-color:rgb(159,124,86)"/>
          </linearGradient>
         </defs>
         <path style="fill:url(#gradient5)" d="M 26390,10091 L 25702,10091 25702,9929 26665,9929 26006,11157 26694,11157 26694,11319 25727,11319 26390,10091 Z"/>
        </g>
       </g>
      </g>
      <g class="com.sun.star.drawing.PolyPolygonShape">
       <g id="id9">
        <rect class="BoundingBox" stroke="none" fill="none" x="26390" y="10089" width="2" height="2"/>
       </g>
      </g>
      <g class="com.sun.star.drawing.PolyPolygonShape">
       <g id="id10">
        <rect class="BoundingBox" stroke="none" fill="none" x="27044" y="9862" width="1365" height="1459"/>
        <g>
         <defs>
          <linearGradient id="gradient6" x1="26889" y1="10287" x2="28561" y2="10895" gradientUnits="userSpaceOnUse">
           <stop offset="0" style="stop-color:rgb(212,179,144)"/>
           <stop offset="1" style="stop-color:rgb(159,124,86)"/>
          </linearGradient>
         </defs>
         <path style="fill:url(#gradient6)" d="M 27389,10983 L 27229,11319 27044,11319 27746,9863 28407,11319 28226,11319 28071,10983 28000,10821 27739,10258 27467,10821 27389,10983 Z"/>
        </g>
       </g>
      </g>
      <g class="com.sun.star.drawing.PolyPolygonShape">
       <g id="id11">
        <rect class="BoundingBox" stroke="none" fill="none" x="27389" y="10983" width="2" height="2"/>
       </g>
      </g>
      <g class="com.sun.star.drawing.PolyPolygonShape">
       <g id="id12">
        <rect class="BoundingBox" stroke="none" fill="none" x="29552" y="10553" width="2" height="2"/>
       </g>
      </g>
      <g class="com.sun.star.drawing.PolyPolygonShape">
       <g id="id13">
        <rect class="BoundingBox" stroke="none" fill="none" x="30238" y="10541" width="960" height="780"/>
        <g>
         <defs>
          <linearGradient id="gradient7" x1="30170" y1="10731" x2="31267" y2="11130" gradientUnits="userSpaceOnUse">
           <stop offset="0" style="stop-color:rgb(212,179,144)"/>
           <stop offset="1" style="stop-color:rgb(159,124,86)"/>
          </linearGradient>
         </defs>
         <path style="fill:url(#gradient7)" d="M 30405,10542 L 30922,10542 31021,10542 31021,10704 30405,10704 30405,11152 31197,11152 31197,11319 30239,11319 30239,10542 30405,10542 Z"/>
        </g>
       </g>
      </g>
      <g class="com.sun.star.drawing.PolyPolygonShape">
       <g id="id14">
        <rect class="BoundingBox" stroke="none" fill="none" x="30407" y="10541" width="2" height="2"/>
       </g>
      </g>
      <g class="com.sun.star.drawing.PolyPolygonShape">
       <g id="id15">
        <rect class="BoundingBox" stroke="none" fill="none" x="30238" y="9929" width="960" height="164"/>
        <g>
         <defs>
          <linearGradient id="gradient8" x1="30269" y1="9847" x2="31167" y2="10173" gradientUnits="userSpaceOnUse">
           <stop offset="0" style="stop-color:rgb(212,179,144)"/>
           <stop offset="1" style="stop-color:rgb(159,124,86)"/>
          </linearGradient>
         </defs>
         <path style="fill:url(#gradient8)" d="M 30239,10091 L 30239,9929 31197,9929 31197,10091 30922,10091 30405,10091 30239,10091 Z"/>
        </g>
       </g>
      </g>
      <g class="com.sun.star.drawing.PolyPolygonShape">
       <g id="id16">
        <rect class="BoundingBox" stroke="none" fill="none" x="30238" y="10089" width="2" height="2"/>
       </g>
      </g>
      <g class="com.sun.star.drawing.PolyPolygonShape">
       <g id="id17">
        <rect class="BoundingBox" stroke="none" fill="none" x="31658" y="9929" width="937" height="1392"/>
        <g>
         <defs>
          <linearGradient id="gradient9" x1="31489" y1="10392" x2="32763" y2="10856" gradientUnits="userSpaceOnUse">
           <stop offset="0" style="stop-color:rgb(212,179,144)"/>
           <stop offset="1" style="stop-color:rgb(159,124,86)"/>
          </linearGradient>
         </defs>
         <path style="fill:url(#gradient9)" d="M 31825,11157 L 32594,11157 32594,11319 31659,11319 31659,9929 31825,9929 31825,11157 Z"/>
        </g>
       </g>
      </g>
      <g class="com.sun.star.drawing.PolyPolygonShape">
       <g id="id18">
        <rect class="BoundingBox" stroke="none" fill="none" x="31827" y="11157" width="2" height="2"/>
       </g>
      </g>
      <g class="com.sun.star.drawing.PolyPolygonShape">
       <g id="id19">
        <rect class="BoundingBox" stroke="none" fill="none" x="33055" y="9929" width="937" height="1392"/>
        <g>
         <defs>
          <linearGradient id="gradient10" x1="32886" y1="10392" x2="34160" y2="10856" gradientUnits="userSpaceOnUse">
           <stop offset="0" style="stop-color:rgb(212,179,144)"/>
           <stop offset="1" style="stop-color:rgb(159,124,86)"/>
          </linearGradient>
         </defs>
         <path style="fill:url(#gradient10)" d="M 33223,11157 L 33991,11157 33991,11319 33056,11319 33056,9929 33223,9929 33223,11157 Z"/>
        </g>
       </g>
      </g>
      <g class="com.sun.star.drawing.PolyPolygonShape">
       <g id="id20">
        <rect class="BoundingBox" stroke="none" fill="none" x="33222" y="11157" width="2" height="2"/>
       </g>
      </g>
      <g class="com.sun.star.drawing.PolyPolygonShape">
       <g id="id21">
        <rect class="BoundingBox" stroke="none" fill="none" x="34452" y="10541" width="960" height="780"/>
        <g>
         <defs>
          <linearGradient id="gradient11" x1="34384" y1="10731" x2="35481" y2="11130" gradientUnits="userSpaceOnUse">
           <stop offset="0" style="stop-color:rgb(212,179,144)"/>
           <stop offset="1" style="stop-color:rgb(159,124,86)"/>
          </linearGradient>
         </defs>
         <path style="fill:url(#gradient11)" d="M 34620,10542 L 35168,10542 35235,10542 35235,10704 34620,10704 34620,11152 35411,11152 35411,11319 34453,11319 34453,10542 34620,10542 Z"/>
        </g>
       </g>
      </g>
      <g class="com.sun.star.drawing.PolyPolygonShape">
       <g id="id22">
        <rect class="BoundingBox" stroke="none" fill="none" x="34621" y="10541" width="2" height="2"/>
       </g>
      </g>
      <g class="com.sun.star.drawing.PolyPolygonShape">
       <g id="id23">
        <rect class="BoundingBox" stroke="none" fill="none" x="34452" y="9929" width="960" height="164"/>
        <g>
         <defs>
          <linearGradient id="gradient12" x1="34483" y1="9847" x2="35381" y2="10173" gradientUnits="userSpaceOnUse">
           <stop offset="0" style="stop-color:rgb(212,179,144)"/>
           <stop offset="1" style="stop-color:rgb(159,124,86)"/>
          </linearGradient>
         </defs>
         <path style="fill:url(#gradient12)" d="M 34453,10091 L 34453,9929 35411,9929 35411,10091 35168,10091 34620,10091 34453,10091 Z"/>
        </g>
       </g>
      </g>
      <g class="com.sun.star.drawing.PolyPolygonShape">
       <g id="id24">
        <rect class="BoundingBox" stroke="none" fill="none" x="34452" y="10089" width="2" height="2"/>
       </g>
      </g>
      <g class="com.sun.star.drawing.ClosedBezierShape">
       <g id="id25">
        <rect class="BoundingBox" stroke="none" fill="none" x="36554" y="9910" width="1056" height="1425"/>
        <g>
         <defs>
          <linearGradient id="gradient13" x1="36387" y1="10369" x2="37775" y2="10875" gradientUnits="userSpaceOnUse">
           <stop offset="0" style="stop-color:rgb(212,179,144)"/>
           <stop offset="1" style="stop-color:rgb(159,124,86)"/>
          </linearGradient>
         </defs>
         <path style="fill:url(#gradient13)" d="M 37386,10611 L 37411,10625 37434,10640 37456,10656 37477,10673 37497,10691 37515,10710 37533,10731 37549,10752 37562,10773 37574,10795 37585,10817 37593,10839 37600,10862 37604,10885 37607,10909 37608,10933 37608,10955 37606,10977 37602,10998 37598,11018 37592,11038 37585,11058 37577,11077 37567,11095 37555,11115 37543,11133 37529,11151 37514,11167 37499,11183 37483,11198 37466,11212 37448,11226 37406,11252 37363,11274 37319,11293 37274,11308 37227,11319 37180,11327 37132,11332 37082,11333 37058,11333 37034,11331 37010,11329 36985,11326 36961,11322 36936,11318 36912,11312 36888,11306 36866,11298 36844,11290 36822,11281 36800,11271 36779,11261 36758,11249 36737,11237 36716,11223 36688,11201 36661,11177 36637,11152 36615,11124 36597,11095 36588,11080 36581,11064 36574,11047 36568,11030 36563,11013 36559,10995 36554,10970 36716,10880 36721,10935 36722,10948 36724,10961 36726,10973 36729,10985 36733,10996 36738,11007 36744,11017 36750,11027 36757,11037 36764,11046 36772,11055 36781,11064 36800,11080 36822,11095 36835,11104 36848,11113 36862,11121 36877,11128 36891,11134 36907,11140 36922,11146 36938,11150 36956,11155 36973,11159 36991,11163 37009,11166 37027,11168 37045,11169 37064,11170 37082,11171 37118,11170 37153,11167 37187,11161 37221,11154 37253,11143 37285,11130 37316,11114 37345,11095 37365,11079 37384,11063 37401,11045 37408,11035 37415,11025 37421,11015 37427,11005 37432,10994 37436,10982 37439,10971 37442,10959 37443,10946 37444,10933 37443,10920 37441,10908 37438,10895 37434,10883 37429,10871 37422,10860 37415,10848 37407,10837 37397,10824 37386,10812 37374,10801 37362,10790 37349,10780 37335,10770 37321,10761 37306,10752 37295,10747 37282,10742 37254,10733 37223,10726 37191,10719 37127,10710 37071,10702 36961,10688 36918,10680 36897,10675 36876,10669 36855,10663 36834,10655 36814,10647 36794,10638 36769,10625 36744,10611 36721,10596 36698,10579 36676,10561 36656,10542 36638,10521 36620,10498 36605,10477 36592,10454 36580,10431 36571,10408 36564,10383 36558,10358 36555,10333 36554,10306 36555,10285 36557,10264 36561,10243 36566,10223 36572,10203 36579,10184 36588,10165 36598,10146 36609,10128 36622,10110 36636,10093 36650,10076 36666,10061 36682,10046 36699,10032 36716,10018 36758,9994 36800,9972 36822,9963 36844,9954 36866,9946 36888,9938 36912,9932 36936,9926 36961,9922 36985,9918 37010,9915 37034,9913 37058,9911 37082,9911 37132,9912 37180,9917 37227,9926 37274,9937 37319,9952 37363,9971 37406,9993 37448,10018 37476,10041 37503,10065 37527,10091 37548,10119 37567,10149 37575,10165 37583,10181 37589,10197 37595,10214 37600,10231 37604,10249 37608,10274 37446,10364 37444,10306 37442,10295 37441,10285 37438,10274 37435,10264 37431,10253 37427,10243 37422,10234 37416,10224 37409,10212 37402,10201 37394,10191 37385,10181 37376,10172 37366,10164 37356,10156 37345,10149 37331,10139 37317,10130 37302,10121 37288,10114 37272,10107 37257,10101 37242,10096 37226,10091 37209,10087 37192,10083 37174,10080 37156,10077 37138,10075 37120,10074 37082,10073 37045,10074 37027,10075 37009,10077 36992,10080 36974,10083 36956,10087 36938,10091 36922,10096 36907,10101 36891,10107 36877,10114 36862,10121 36848,10130 36835,10139 36822,10149 36810,10156 36799,10164 36789,10172 36779,10181 36770,10191 36761,10201 36753,10212 36746,10224 36741,10234 36736,10244 36731,10254 36728,10264 36725,10275 36723,10286 36721,10296 36721,10306 36721,10314 36722,10321 36723,10328 36724,10335 36728,10348 36733,10361 36739,10374 36746,10386 36754,10398 36762,10409 36773,10423 36785,10435 36797,10447 36811,10459 36825,10469 36839,10479 36854,10488 36870,10496 36879,10501 36890,10505 36900,10509 36911,10512 36923,10515 36934,10517 36957,10521 36991,10527 37025,10532 37094,10542 37131,10546 37149,10548 37167,10551 37196,10555 37226,10561 37286,10574 37312,10581 37337,10590 37362,10599 37374,10605 37386,10611 Z"/>
        </g>
       </g>
      </g>
      <g class="com.sun.star.drawing.PolyPolygonShape">
       <g id="id26">
        <rect class="BoundingBox" stroke="none" fill="none" x="37386" y="10612" width="2" height="2"/>
       </g>
      </g>
      <g class="com.sun.star.drawing.ClosedBezierShape">
       <g id="id27">
        <rect class="BoundingBox" stroke="none" fill="none" x="37971" y="9910" width="1322" height="1422"/>
        <g>
         <defs>
          <linearGradient id="gradient14" x1="37820" y1="10326" x2="39442" y2="10916" gradientUnits="userSpaceOnUse">
           <stop offset="0" style="stop-color:rgb(212,179,144)"/>
           <stop offset="1" style="stop-color:rgb(159,124,86)"/>
          </linearGradient>
         </defs>
         <path style="fill:url(#gradient14)" d="M 38699,11331 L 38650,11329 38603,11325 38556,11317 38510,11307 38465,11293 38421,11277 38378,11257 38335,11235 38294,11210 38256,11182 38219,11153 38184,11122 38152,11088 38122,11053 38094,11016 38068,10976 38045,10935 38026,10892 38009,10849 37996,10805 37985,10760 37978,10714 37973,10667 37972,10620 37973,10573 37978,10527 37985,10481 37996,10437 38009,10393 38026,10350 38045,10308 38068,10268 38094,10227 38122,10190 38152,10154 38184,10120 38219,10089 38256,10059 38294,10032 38335,10007 38378,9984 38421,9965 38465,9948 38510,9935 38556,9924 38603,9917 38650,9912 38699,9911 38738,9912 38776,9915 38814,9920 38851,9926 38888,9935 38924,9946 38960,9958 38996,9973 39030,9989 39063,10006 39096,10025 39127,10046 39157,10068 39187,10091 39214,10116 39241,10142 39266,10169 39136,10279 39115,10254 39094,10232 39072,10212 39050,10193 39026,10176 39003,10160 38978,10145 38953,10131 38928,10119 38900,10108 38872,10098 38844,10090 38816,10084 38787,10079 38758,10076 38729,10074 38699,10073 38662,10074 38626,10077 38590,10083 38554,10091 38519,10101 38485,10113 38452,10127 38420,10144 38388,10163 38358,10184 38330,10207 38303,10232 38278,10258 38255,10286 38234,10315 38214,10345 38196,10377 38181,10410 38168,10443 38158,10477 38149,10512 38143,10547 38140,10583 38139,10620 38140,10656 38143,10692 38149,10728 38158,10763 38168,10797 38181,10830 38196,10863 38214,10894 38234,10926 38255,10955 38278,10983 38303,11009 38330,11033 38358,11056 38388,11076 38420,11095 38452,11112 38485,11127 38519,11140 38554,11150 38590,11158 38626,11164 38662,11167 38699,11168 38731,11168 38763,11165 38794,11161 38824,11155 38854,11148 38883,11139 38911,11128 38939,11116 38968,11101 38995,11086 39021,11069 39046,11051 39070,11032 39093,11011 39115,10990 39136,10967 39159,10937 39291,11040 39266,11068 39240,11098 39212,11127 39183,11153 39152,11179 39120,11202 39087,11224 39051,11244 39014,11262 38977,11279 38939,11293 38900,11305 38861,11315 38821,11322 38781,11327 38740,11330 38699,11331 Z"/>
        </g>
       </g>
      </g>
      <g class="com.sun.star.drawing.PolyPolygonShape">
       <g id="id28">
        <rect class="BoundingBox" stroke="none" fill="none" x="38698" y="11330" width="2" height="2"/>
       </g>
      </g>
      <g class="com.sun.star.drawing.PolyPolygonShape">
       <g id="id29">
        <rect class="BoundingBox" stroke="none" fill="none" x="39686" y="9839" width="1075" height="1393"/>
        <g>
         <defs>
          <linearGradient id="gradient15" x1="39526" y1="10281" x2="40920" y2="10789" gradientUnits="userSpaceOnUse">
           <stop offset="0" style="stop-color:rgb(212,179,144)"/>
           <stop offset="1" style="stop-color:rgb(159,124,86)"/>
          </linearGradient>
         </defs>
         <path style="fill:url(#gradient15)" d="M 40590,10617 L 39854,10617 39854,11230 39687,11230 39687,9840 39854,9840 39854,10453 40590,10453 40590,9840 40759,9840 40759,11230 40590,11230 40590,10617 Z"/>
        </g>
       </g>
      </g>
      <g class="com.sun.star.drawing.PolyPolygonShape">
       <g id="id30">
        <rect class="BoundingBox" stroke="none" fill="none" x="40589" y="10617" width="2" height="2"/>
       </g>
      </g>
      <g class="com.sun.star.drawing.PolyPolygonShape">
       <g id="id31">
        <rect class="BoundingBox" stroke="none" fill="none" x="41266" y="9748" width="1484" height="1484"/>
        <g>
         <defs>
          <linearGradient id="gradient16" x1="41115" y1="10164" x2="42899" y2="10814" gradientUnits="userSpaceOnUse">
           <stop offset="0" style="stop-color:rgb(212,179,144)"/>
           <stop offset="1" style="stop-color:rgb(159,124,86)"/>
          </linearGradient>
         </defs>
         <path style="fill:url(#gradient16)" d="M 42582,10263 L 42012,11045 41434,10258 41434,11230 41267,11230 41267,9748 42012,10764 42748,9748 42748,11230 42582,11230 42582,10263 Z"/>
        </g>
       </g>
      </g>
      <g class="com.sun.star.drawing.PolyPolygonShape">
       <g id="id32">
        <rect class="BoundingBox" stroke="none" fill="none" x="42581" y="10262" width="2" height="2"/>
       </g>
      </g>
      <g class="com.sun.star.drawing.PolyPolygonShape">
       <g id="id33">
        <rect class="BoundingBox" stroke="none" fill="none" x="43283" y="9839" width="169" height="1393"/>
        <g>
         <defs>
          <linearGradient id="gradient17" x1="43069" y1="10427" x2="43665" y2="10643" gradientUnits="userSpaceOnUse">
           <stop offset="0" style="stop-color:rgb(212,179,144)"/>
           <stop offset="1" style="stop-color:rgb(159,124,86)"/>
          </linearGradient>
         </defs>
         <path style="fill:url(#gradient17)" d="M 43284,9840 L 43450,9840 43450,11230 43284,11230 43284,9840 Z"/>
        </g>
       </g>
      </g>
      <g class="com.sun.star.drawing.PolyPolygonShape">
       <g id="id34">
        <rect class="BoundingBox" stroke="none" fill="none" x="43450" y="11230" width="2" height="2"/>
       </g>
      </g>
      <g class="com.sun.star.drawing.PolyPolygonShape">
       <g id="id35">
        <rect class="BoundingBox" stroke="none" fill="none" x="43871" y="9839" width="1255" height="1393"/>
        <g>
         <defs>
          <linearGradient id="gradient18" x1="43720" y1="10252" x2="45274" y2="10818" gradientUnits="userSpaceOnUse">
           <stop offset="0" style="stop-color:rgb(212,179,144)"/>
           <stop offset="1" style="stop-color:rgb(159,124,86)"/>
          </linearGradient>
         </defs>
         <path style="fill:url(#gradient18)" d="M 44585,10002 L 44585,11230 44413,11230 44413,10002 43871,10002 43871,9840 45124,9840 45124,10002 44585,10002 Z"/>
        </g>
       </g>
      </g>
      <g class="com.sun.star.drawing.PolyPolygonShape">
       <g id="id36">
        <rect class="BoundingBox" stroke="none" fill="none" x="44584" y="10000" width="2" height="2"/>
       </g>
      </g>
      <g class="com.sun.star.drawing.PolyPolygonShape">
       <g id="id37">
        <rect class="BoundingBox" stroke="none" fill="none" x="45496" y="9839" width="1255" height="1393"/>
        <g>
         <defs>
          <linearGradient id="gradient19" x1="45346" y1="10252" x2="46900" y2="10818" gradientUnits="userSpaceOnUse">
           <stop offset="0" style="stop-color:rgb(212,179,144)"/>
           <stop offset="1" style="stop-color:rgb(159,124,86)"/>
          </linearGradient>
         </defs>
         <path style="fill:url(#gradient19)" d="M 46210,10002 L 46210,11230 46039,11230 46039,10002 45497,10002 45497,9840 46750,9840 46750,10002 46210,10002 Z"/>
        </g>
       </g>
      </g>
      <g class="com.sun.star.drawing.PolyPolygonShape">
       <g id="id38">
        <rect class="BoundingBox" stroke="none" fill="none" x="46210" y="10000" width="2" height="2"/>
       </g>
      </g>
      <g class="com.sun.star.drawing.PolyPolygonShape">
       <g id="id39">
        <rect class="BoundingBox" stroke="none" fill="none" x="28955" y="10503" width="2" height="2"/>
       </g>
      </g>
      <g class="com.sun.star.drawing.ClosedBezierShape">
       <g id="id40">
        <rect class="BoundingBox" stroke="none" fill="none" x="28788" y="9929" width="1031" height="1392"/>
        <g>
         <defs>
          <linearGradient id="gradient20" x1="28625" y1="10377" x2="29981" y2="10871" gradientUnits="userSpaceOnUse">
           <stop offset="0" style="stop-color:rgb(212,179,144)"/>
           <stop offset="1" style="stop-color:rgb(159,124,86)"/>
          </linearGradient>
         </defs>
         <path style="fill:url(#gradient20)" d="M 28956,10505 L 29214,10505 29236,10505 29259,10504 29281,10501 29303,10498 29320,10495 29337,10490 29354,10485 29370,10480 29383,10475 29396,10468 29408,10460 29420,10452 29431,10443 29441,10434 29451,10424 29461,10414 29466,10408 29471,10402 29476,10395 29480,10389 29484,10382 29487,10375 29490,10368 29493,10361 29497,10346 29500,10331 29502,10316 29502,10300 29502,10287 29500,10274 29498,10262 29494,10249 29489,10237 29484,10224 29478,10212 29470,10199 29461,10186 29451,10175 29440,10164 29429,10154 29416,10145 29403,10136 29390,10128 29377,10121 29357,10113 29338,10107 29318,10102 29298,10098 29278,10095 29258,10093 29237,10092 29216,10091 28956,10091 28956,10505 Z M 28956,10665 L 28956,11157 29326,11157 29349,11157 29371,11155 29393,11153 29415,11149 29437,11145 29458,11139 29479,11131 29500,11123 29517,11113 29533,11103 29548,11092 29563,11081 29577,11069 29590,11056 29603,11043 29614,11029 29622,11016 29630,11002 29636,10988 29641,10973 29645,10958 29648,10943 29650,10928 29651,10912 29650,10895 29648,10878 29644,10862 29639,10846 29633,10831 29626,10817 29617,10803 29607,10789 29596,10776 29584,10763 29571,10752 29558,10741 29544,10731 29529,10722 29514,10714 29498,10707 29470,10696 29441,10687 29411,10679 29380,10674 29349,10670 29319,10667 29288,10666 29258,10665 28956,10665 Z M 29555,10553 L 29555,10554 29556,10554 29556,10554 29557,10555 29558,10555 29559,10556 29561,10556 29562,10557 29563,10557 29563,10557 29564,10558 29564,10558 29590,10570 29615,10583 29639,10598 29662,10615 29684,10632 29704,10652 29724,10673 29742,10695 29760,10719 29775,10744 29788,10770 29799,10797 29807,10824 29813,10853 29817,10882 29818,10912 29817,10933 29816,10953 29813,10972 29809,10992 29804,11010 29798,11029 29790,11047 29781,11066 29771,11085 29761,11103 29749,11121 29737,11138 29724,11154 29710,11169 29696,11184 29681,11198 29662,11213 29642,11227 29623,11239 29603,11250 29583,11261 29562,11271 29540,11279 29518,11287 29495,11295 29472,11301 29448,11307 29424,11311 29400,11315 29376,11317 29351,11319 29326,11319 28789,11319 28791,9929 29216,9929 29262,9931 29307,9935 29352,9943 29394,9954 29435,9970 29455,9979 29475,9989 29494,10000 29513,10013 29531,10026 29548,10041 29562,10054 29574,10068 29587,10082 29598,10096 29609,10111 29619,10127 29627,10143 29635,10160 29643,10177 29650,10195 29656,10212 29661,10230 29664,10247 29667,10265 29669,10282 29669,10300 29668,10322 29666,10344 29663,10365 29658,10386 29652,10407 29644,10428 29636,10447 29626,10466 29610,10491 29602,10503 29593,10514 29584,10525 29575,10535 29565,10544 29555,10553 Z"/>
        </g>
       </g>
      </g>
      <g class="Group">
       <g class="Group">
        <g class="com.sun.star.drawing.ClosedBezierShape">
         <g id="id41">
          <rect class="BoundingBox" stroke="none" fill="none" x="19866" y="9858" width="1143" height="1465"/>
          <g>
           <defs>
            <linearGradient id="gradient21" x1="19978" y1="9794" x2="20896" y2="11386" gradientUnits="userSpaceOnUse">
             <stop offset="0" style="stop-color:rgb(159,124,86)"/>
             <stop offset="1" style="stop-color:rgb(212,179,144)"/>
            </linearGradient>
           </defs>
           <path style="fill:url(#gradient21)" d="M 20296,11322 L 20335,11322 20340,11322 20344,11321 20354,11321 20363,11320 20368,11319 20372,11319 20391,11316 20401,11315 20406,11315 20411,11315 20447,11308 20456,11306 20465,11304 20473,11302 20477,11300 20482,11299 20499,11295 20508,11293 20518,11290 20523,11288 20527,11287 20535,11284 20544,11281 20548,11280 20553,11278 20585,11264 20593,11261 20602,11257 20610,11253 20615,11251 20619,11248 20634,11241 20642,11237 20651,11232 20654,11230 20658,11228 20665,11223 20681,11214 20695,11204 20702,11199 20710,11194 20738,11173 20745,11168 20752,11162 20758,11156 20765,11150 20790,11125 20803,11112 20809,11105 20812,11103 20816,11100 20826,11086 20832,11079 20838,11072 20859,11045 20880,11018 20883,11010 20888,11003 20893,10995 20898,10988 20902,10981 20906,10973 20910,10965 20914,10958 20916,10955 20919,10951 20921,10947 20923,10943 20930,10928 20937,10911 20940,10904 20944,10896 20950,10879 20954,10872 20957,10864 20961,10856 20964,10847 20967,10839 20968,10834 20969,10830 20970,10826 20972,10823 20974,10815 20977,10807 20980,10798 20987,10764 20994,10729 21001,10695 21001,10691 21001,10687 21002,10678 21003,10669 21003,10665 21003,10661 21004,10656 21004,10651 21005,10642 21005,10633 21005,10624 21006,10620 21007,10615 21007,10606 21008,10597 21008,10588 21008,10579 21007,10571 21007,10562 21006,10558 21005,10553 21005,10543 21005,10534 21005,10530 21004,10525 21004,10521 21003,10517 21003,10512 21003,10508 21002,10500 21001,10491 21001,10487 21001,10482 20994,10446 20987,10412 20980,10380 20979,10375 20977,10371 20974,10362 20972,10354 20970,10350 20969,10345 20966,10337 20963,10328 20960,10321 20959,10317 20957,10313 20950,10296 20947,10289 20944,10281 20937,10264 20933,10256 20930,10249 20928,10245 20926,10241 20922,10233 20918,10225 20916,10221 20914,10217 20912,10214 20910,10210 20906,10204 20902,10197 20900,10193 20898,10190 20888,10174 20883,10167 20881,10163 20880,10160 20859,10133 20838,10105 20826,10093 20821,10087 20816,10080 20803,10067 20797,10060 20794,10058 20790,10055 20765,10030 20758,10024 20752,10018 20745,10012 20738,10007 20710,9986 20702,9981 20695,9976 20681,9966 20676,9964 20672,9962 20669,9960 20665,9957 20658,9953 20651,9947 20647,9946 20642,9944 20634,9939 20619,9931 20610,9928 20602,9924 20593,9920 20589,9918 20585,9915 20568,9909 20560,9905 20553,9902 20548,9901 20543,9900 20538,9898 20533,9897 20525,9894 20516,9890 20512,9889 20507,9888 20499,9886 20490,9883 20486,9882 20482,9881 20464,9877 20455,9875 20445,9872 20437,9870 20428,9869 20423,9868 20418,9868 20414,9867 20409,9867 20400,9866 20391,9864 20387,9864 20382,9863 20377,9863 20372,9863 20368,9862 20363,9861 20354,9861 20344,9860 20340,9859 20335,9858 20296,9858 19867,9858 19867,11322 20296,11322 Z M 20011,10002 L 20296,10002 20312,10003 20327,10003 20343,10004 20358,10005 20372,10007 20387,10009 20401,10012 20415,10014 20445,10021 20473,10027 20479,10029 20486,10031 20490,10032 20493,10034 20497,10035 20500,10037 20506,10039 20512,10041 20518,10044 20522,10045 20525,10046 20539,10052 20545,10055 20548,10056 20550,10057 20557,10061 20563,10064 20569,10067 20575,10071 20582,10074 20588,10078 20594,10081 20601,10085 20603,10086 20606,10088 20611,10093 20614,10095 20617,10097 20620,10099 20623,10101 20626,10103 20629,10105 20631,10107 20634,10109 20637,10111 20640,10113 20646,10117 20667,10137 20678,10147 20689,10157 20700,10166 20710,10176 20712,10179 20714,10181 20718,10186 20723,10192 20725,10194 20726,10197 20729,10199 20731,10202 20736,10208 20740,10214 20742,10217 20745,10220 20758,10240 20774,10263 20778,10269 20781,10276 20785,10282 20788,10288 20790,10291 20791,10294 20794,10300 20796,10305 20798,10308 20800,10311 20803,10318 20806,10325 20808,10328 20809,10332 20810,10335 20811,10338 20813,10341 20814,10344 20817,10350 20819,10357 20821,10360 20822,10364 20824,10370 20826,10377 20827,10381 20829,10384 20830,10388 20832,10391 20838,10418 20845,10446 20852,10473 20852,10477 20852,10480 20853,10487 20854,10494 20854,10497 20854,10501 20856,10509 20857,10516 20858,10524 20858,10527 20859,10530 20859,10537 20859,10544 20860,10548 20860,10551 20861,10554 20861,10558 20861,10588 20861,10617 20861,10622 20860,10626 20860,10629 20859,10633 20859,10640 20859,10647 20858,10651 20858,10654 20857,10662 20856,10670 20855,10673 20854,10677 20854,10680 20854,10684 20853,10691 20852,10697 20852,10701 20852,10704 20845,10734 20838,10761 20832,10789 20830,10792 20829,10796 20826,10802 20822,10814 20821,10817 20819,10821 20817,10828 20814,10835 20813,10838 20811,10841 20810,10845 20809,10848 20808,10851 20806,10854 20800,10867 20799,10869 20797,10872 20795,10878 20792,10884 20790,10887 20788,10889 20787,10893 20786,10896 20785,10899 20783,10902 20782,10905 20780,10907 20777,10912 20773,10919 20770,10925 20763,10935 20749,10956 20736,10976 20731,10981 20727,10986 20725,10988 20723,10990 20721,10992 20720,10995 20676,11038 20671,11043 20665,11048 20659,11054 20653,11059 20650,11061 20647,11063 20644,11065 20641,11067 20636,11072 20630,11077 20624,11080 20618,11084 20612,11088 20605,11093 20599,11096 20593,11100 20587,11103 20580,11107 20568,11115 20562,11119 20558,11121 20555,11123 20552,11124 20548,11125 20545,11126 20542,11128 20530,11134 20526,11135 20523,11136 20519,11138 20516,11139 20509,11142 20502,11146 20495,11147 20489,11149 20485,11150 20482,11152 20478,11153 20475,11155 20447,11162 20418,11168 20411,11170 20404,11172 20400,11172 20396,11173 20392,11173 20388,11173 20384,11174 20381,11174 20373,11175 20365,11176 20362,11177 20358,11178 20343,11178 20327,11179 20312,11180 20296,11180 20011,11180 20011,10002 Z"/>
          </g>
         </g>
        </g>
        <g class="com.sun.star.drawing.ClosedBezierShape">
         <g id="id42">
          <rect class="BoundingBox" stroke="none" fill="none" x="21323" y="9858" width="1015" height="1465"/>
          <g>
           <defs>
            <linearGradient id="gradient22" x1="21386" y1="9822" x2="22272" y2="11358" gradientUnits="userSpaceOnUse">
             <stop offset="0" style="stop-color:rgb(159,124,86)"/>
             <stop offset="1" style="stop-color:rgb(212,179,144)"/>
            </linearGradient>
           </defs>
           <path style="fill:url(#gradient22)" d="M 22171,11322 L 21572,10563 21769,10563 21778,10562 21787,10562 21797,10562 21801,10561 21806,10560 21842,10560 21847,10559 21851,10559 21859,10558 21868,10557 21872,10556 21877,10556 21881,10556 21885,10555 21894,10554 21902,10553 21911,10551 21914,10550 21918,10550 21926,10549 21934,10548 21939,10547 21943,10546 21970,10540 21974,10538 21977,10537 21981,10535 21984,10534 21991,10532 21998,10530 22001,10530 22005,10528 22011,10526 22018,10523 22022,10522 22025,10521 22027,10520 22029,10518 22030,10517 22032,10516 22034,10515 22036,10514 22039,10513 22041,10512 22043,10511 22045,10510 22048,10508 22050,10506 22052,10505 22055,10504 22057,10503 22059,10502 22061,10501 22062,10500 22064,10498 22067,10495 22071,10492 22073,10491 22074,10490 22078,10487 22082,10484 22087,10480 22089,10479 22090,10478 22092,10477 22094,10475 22097,10472 22101,10469 22114,10455 22118,10452 22121,10448 22123,10446 22125,10444 22126,10441 22128,10439 22129,10437 22130,10436 22133,10432 22136,10428 22139,10423 22143,10420 22145,10418 22146,10416 22147,10414 22149,10412 22150,10409 22151,10407 22152,10406 22153,10405 22154,10403 22157,10399 22159,10395 22161,10393 22162,10392 22162,10391 22163,10389 22164,10386 22167,10382 22169,10378 22171,10375 22171,10373 22173,10368 22175,10364 22177,10359 22178,10354 22179,10353 22180,10351 22181,10348 22181,10346 22182,10344 22183,10341 22183,10339 22183,10336 22184,10334 22185,10332 22185,10330 22186,10328 22187,10325 22187,10323 22187,10320 22188,10318 22188,10315 22188,10313 22189,10309 22189,10304 22190,10302 22190,10300 22190,10279 22190,10263 22190,10258 22190,10256 22190,10254 22189,10252 22189,10249 22188,10247 22188,10245 22187,10244 22187,10243 22187,10241 22186,10238 22186,10236 22186,10233 22185,10231 22185,10229 22185,10228 22184,10227 22184,10225 22183,10221 22182,10216 22181,10214 22181,10214 22181,10213 22179,10208 22177,10204 22175,10199 22174,10194 22172,10191 22170,10187 22169,10183 22167,10178 22166,10177 22165,10175 22162,10171 22161,10169 22160,10167 22159,10165 22158,10162 22156,10159 22153,10154 22151,10150 22149,10146 22147,10145 22146,10143 22144,10141 22143,10139 22137,10130 22134,10127 22131,10123 22129,10122 22128,10120 22127,10118 22126,10117 22112,10103 22110,10101 22107,10099 22105,10098 22103,10096 22100,10093 22096,10089 22093,10086 22089,10082 22087,10081 22085,10079 22083,10077 22080,10075 22079,10075 22078,10074 22076,10072 22072,10070 22068,10067 22066,10066 22065,10065 22064,10064 22054,10057 22050,10055 22048,10054 22046,10053 22043,10051 22041,10050 22035,10047 22030,10044 22028,10043 22025,10041 22023,10040 22020,10039 22015,10037 22010,10034 22007,10033 22005,10032 22002,10031 21999,10030 21994,10027 21989,10025 21987,10024 21984,10023 21973,10019 21968,10018 21961,10016 21956,10014 21953,10014 21951,10013 21948,10012 21945,10012 21942,10012 21938,10011 21933,10010 21930,10009 21928,10008 21925,10008 21922,10007 21919,10007 21915,10007 21913,10006 21910,10006 21904,10005 21897,10004 21894,10003 21890,10002 21885,10002 21879,10002 21875,10002 21872,10001 21869,10001 21865,10000 21840,10000 21467,10000 21467,11322 21323,11322 21323,9858 21840,9858 21865,9858 21869,9858 21872,9859 21879,9859 21885,9860 21888,9860 21890,9861 21894,9861 21897,9861 21904,9862 21910,9862 21913,9863 21915,9863 21919,9864 21922,9864 21929,9865 21935,9866 21938,9867 21941,9867 21944,9867 21947,9868 21950,9868 21953,9869 21966,9872 21968,9873 21971,9873 21977,9874 21983,9875 21986,9876 21989,9877 22014,9883 22019,9885 22024,9887 22030,9889 22037,9893 22047,9896 22053,9898 22059,9899 22062,9901 22065,9902 22070,9905 22075,9908 22077,9909 22080,9911 22083,9912 22085,9913 22090,9915 22095,9918 22098,9919 22101,9920 22106,9923 22111,9927 22113,9928 22116,9929 22119,9930 22121,9931 22142,9945 22147,9948 22151,9951 22155,9953 22160,9957 22163,9958 22165,9960 22167,9962 22169,9964 22174,9968 22178,9973 22181,9974 22183,9976 22188,9979 22192,9983 22194,9985 22197,9986 22198,9988 22200,9990 22204,9994 22206,9996 22208,9998 22210,10000 22213,10002 22229,10018 22230,10020 22232,10022 22236,10026 22239,10031 22241,10032 22242,10034 22244,10036 22246,10038 22249,10042 22253,10047 22254,10048 22256,10050 22259,10055 22262,10059 22264,10064 22268,10069 22274,10078 22276,10080 22277,10082 22278,10084 22279,10087 22280,10088 22281,10089 22282,10091 22283,10093 22285,10095 22287,10100 22289,10103 22290,10105 22291,10108 22292,10110 22295,10114 22297,10119 22299,10121 22300,10123 22301,10129 22302,10131 22303,10133 22304,10136 22306,10138 22307,10140 22308,10141 22309,10142 22316,10162 22319,10171 22319,10174 22320,10176 22320,10178 22320,10181 22327,10201 22327,10204 22327,10206 22328,10211 22329,10216 22329,10218 22329,10220 22330,10222 22331,10225 22332,10230 22332,10235 22333,10238 22334,10240 22334,10261 22334,10266 22334,10268 22334,10271 22334,10273 22335,10275 22335,10276 22335,10277 22336,10278 22336,10279 22335,10283 22335,10288 22334,10296 22334,10304 22334,10311 22332,10319 22332,10327 22331,10334 22330,10337 22329,10341 22329,10345 22329,10349 22328,10353 22328,10356 22326,10364 22325,10370 22324,10375 22323,10379 22320,10386 22318,10393 22317,10397 22316,10400 22315,10404 22313,10407 22311,10414 22308,10421 22307,10424 22306,10428 22293,10455 22291,10458 22289,10462 22285,10469 22280,10476 22278,10479 22277,10482 22274,10485 22272,10488 22270,10491 22268,10494 22263,10501 22258,10508 22256,10510 22254,10513 22249,10519 22245,10525 22243,10528 22240,10530 22235,10537 22230,10543 22225,10548 22220,10553 22199,10574 22196,10576 22194,10579 22189,10583 22183,10587 22181,10590 22178,10592 22176,10595 22173,10597 22171,10599 22168,10601 22163,10605 22158,10608 22154,10610 22151,10612 22148,10614 22145,10616 22140,10620 22137,10622 22135,10624 22132,10626 22129,10627 22123,10630 22118,10633 22115,10634 22112,10636 22109,10637 22107,10639 22101,10642 22095,10645 22092,10646 22089,10647 22079,10651 22069,10655 22050,10663 22030,10670 22028,10671 22026,10672 22021,10673 22011,10677 22011,10677 22010,10678 22008,10678 22005,10679 22003,10679 21998,10680 21996,10681 21993,10681 21992,10682 21991,10682 21989,10683 21985,10684 21981,10685 21979,10685 21978,10686 21977,10686 21975,10686 21972,10686 21967,10687 21963,10688 21961,10688 21959,10688 21956,10689 21954,10690 21950,10691 21948,10691 21946,10691 21945,10692 21943,10693 21939,10693 21934,10693 21926,10694 21917,10695 21913,10695 21909,10695 21905,10695 21902,10695 21895,10696 21887,10697 21883,10697 21879,10697 21875,10698 21872,10698 21865,10699 21858,10699 21855,10700 21851,10700 21824,10700 22336,11322 22171,11322 Z"/>
          </g>
         </g>
        </g>
        <g class="com.sun.star.drawing.ClosedBezierShape">
         <g id="id43">
          <rect class="BoundingBox" stroke="none" fill="none" x="24149" y="11124" width="201" height="199"/>
          <g>
           <defs>
            <linearGradient id="gradient23" x1="24181" y1="11106" x2="24316" y2="11341" gradientUnits="userSpaceOnUse">
             <stop offset="0" style="stop-color:rgb(159,124,86)"/>
             <stop offset="1" style="stop-color:rgb(212,179,144)"/>
            </linearGradient>
           </defs>
           <path style="fill:url(#gradient23)" d="M 24149,11226 L 24149,11235 24149,11236 24149,11236 24150,11237 24150,11238 24150,11239 24151,11240 24151,11242 24151,11243 24152,11243 24152,11243 24152,11244 24152,11251 24154,11253 24154,11258 24154,11258 24155,11258 24155,11259 24155,11259 24156,11260 24156,11260 24156,11260 24156,11261 24156,11261 24156,11262 24156,11262 24156,11262 24156,11263 24156,11263 24156,11263 24157,11264 24157,11264 24157,11265 24157,11265 24158,11266 24158,11266 24158,11267 24159,11267 24159,11267 24159,11268 24159,11268 24159,11268 24159,11268 24159,11269 24160,11269 24160,11269 24160,11270 24160,11270 24161,11270 24161,11271 24161,11271 24161,11271 24161,11272 24161,11272 24161,11272 24161,11273 24161,11273 24162,11273 24162,11274 24162,11274 24163,11274 24163,11275 24163,11275 24163,11275 24163,11276 24163,11276 24165,11278 24166,11280 24167,11281 24168,11283 24169,11284 24170,11285 24171,11286 24172,11287 24179,11294 24186,11301 24186,11301 24187,11302 24187,11302 24188,11302 24189,11303 24189,11303 24190,11304 24191,11304 24192,11305 24192,11305 24192,11305 24193,11306 24194,11306 24196,11307 24198,11309 24199,11309 24200,11310 24201,11310 24201,11310 24202,11310 24202,11310 24202,11311 24203,11311 24203,11311 24204,11312 24205,11312 24206,11312 24208,11313 24210,11314 24211,11315 24212,11315 24212,11315 24212,11315 24213,11315 24215,11316 24216,11316 24217,11317 24218,11317 24219,11317 24219,11317 24220,11317 24221,11317 24221,11318 24222,11318 24222,11318 24222,11319 24223,11319 24223,11319 24224,11319 24225,11319 24226,11319 24229,11319 24230,11319 24230,11319 24231,11320 24231,11320 24233,11321 24234,11321 24236,11321 24236,11321 24237,11322 24238,11322 24239,11322 24248,11322 24257,11322 24258,11322 24258,11322 24259,11321 24260,11321 24261,11321 24263,11321 24264,11320 24265,11320 24266,11320 24267,11319 24267,11319 24268,11319 24270,11319 24271,11319 24272,11319 24273,11319 24274,11318 24276,11318 24277,11317 24278,11317 24278,11317 24279,11317 24279,11317 24281,11316 24282,11316 24284,11315 24284,11315 24285,11315 24286,11315 24287,11315 24287,11314 24287,11314 24288,11314 24288,11313 24289,11313 24290,11313 24291,11312 24292,11312 24292,11311 24293,11311 24293,11311 24293,11310 24295,11309 24296,11309 24299,11308 24300,11307 24301,11307 24301,11307 24302,11306 24302,11306 24303,11306 24304,11304 24305,11303 24306,11303 24306,11302 24307,11302 24307,11302 24308,11302 24309,11301 24309,11301 24310,11301 24311,11301 24312,11301 24319,11294 24320,11292 24321,11292 24322,11290 24323,11289 24324,11288 24325,11287 24325,11285 24332,11278 24332,11278 24332,11278 24332,11277 24333,11277 24333,11276 24333,11276 24333,11276 24333,11275 24334,11275 24334,11274 24334,11274 24335,11274 24335,11274 24335,11273 24335,11273 24335,11273 24335,11273 24335,11272 24335,11272 24335,11272 24335,11272 24336,11272 24336,11272 24336,11271 24336,11271 24337,11271 24337,11270 24337,11270 24337,11269 24337,11269 24337,11268 24337,11268 24337,11268 24338,11267 24338,11267 24338,11267 24338,11267 24338,11267 24338,11267 24338,11267 24339,11267 24339,11267 24339,11266 24339,11265 24339,11265 24339,11265 24339,11265 24339,11264 24340,11264 24340,11264 24340,11264 24341,11262 24341,11258 24342,11258 24342,11258 24342,11257 24343,11257 24343,11257 24343,11257 24343,11257 24343,11257 24343,11257 24343,11257 24343,11256 24344,11256 24344,11256 24344,11255 24344,11254 24344,11253 24344,11253 24344,11253 24344,11252 24344,11252 24344,11251 24344,11251 24344,11251 24345,11250 24345,11250 24345,11249 24346,11249 24346,11248 24346,11244 24346,11239 24346,11239 24347,11239 24347,11239 24347,11239 24347,11239 24347,11239 24347,11239 24348,11239 24348,11238 24348,11238 24348,11238 24348,11238 24348,11237 24348,11236 24348,11236 24348,11235 24348,11226 24348,11216 24348,11216 24348,11215 24348,11214 24348,11214 24348,11213 24348,11213 24348,11213 24348,11212 24347,11212 24347,11212 24347,11212 24347,11212 24347,11212 24347,11212 24346,11212 24346,11212 24346,11207 24346,11203 24346,11202 24345,11202 24345,11201 24345,11201 24344,11201 24344,11200 24344,11200 24344,11200 24344,11199 24344,11199 24344,11198 24344,11198 24344,11197 24344,11197 24344,11197 24344,11196 24344,11196 24343,11196 24343,11196 24343,11195 24343,11195 24341,11194 24341,11189 24341,11189 24341,11188 24340,11187 24339,11186 24338,11184 24338,11183 24337,11182 24337,11181 24337,11181 24337,11180 24337,11180 24335,11178 24334,11177 24334,11176 24333,11176 24333,11175 24333,11175 24333,11174 24332,11174 24332,11173 24332,11173 24331,11171 24331,11170 24330,11169 24329,11168 24328,11167 24327,11166 24325,11164 24319,11157 24318,11156 24317,11155 24315,11152 24313,11150 24313,11149 24312,11148 24311,11147 24311,11147 24310,11147 24310,11147 24308,11146 24307,11146 24306,11145 24305,11145 24304,11144 24304,11144 24303,11144 24303,11143 24303,11143 24302,11143 24302,11142 24302,11142 24302,11142 24302,11142 24302,11141 24301,11141 24301,11141 24300,11140 24299,11139 24298,11139 24298,11139 24298,11139 24298,11139 24297,11139 24297,11139 24297,11139 24297,11138 24297,11138 24296,11138 24296,11138 24296,11138 24296,11137 24296,11137 24296,11137 24296,11136 24295,11136 24294,11136 24293,11136 24293,11136 24293,11136 24292,11136 24292,11136 24292,11136 24292,11136 24292,11135 24291,11135 24291,11135 24291,11135 24291,11135 24291,11135 24291,11134 24290,11134 24289,11134 24289,11134 24288,11134 24288,11134 24288,11134 24287,11134 24287,11133 24287,11133 24287,11133 24287,11133 24287,11133 24287,11133 24287,11133 24287,11132 24287,11132 24282,11132 24282,11131 24281,11131 24281,11131 24280,11131 24280,11130 24280,11130 24279,11130 24279,11130 24278,11130 24278,11130 24278,11130 24277,11130 24277,11130 24276,11130 24275,11129 24275,11129 24274,11129 24274,11129 24274,11129 24273,11129 24273,11129 24273,11129 24273,11128 24273,11128 24273,11128 24273,11128 24273,11128 24273,11127 24268,11127 24267,11127 24267,11127 24266,11127 24265,11127 24265,11127 24265,11127 24265,11127 24264,11127 24264,11126 24264,11126 24264,11126 24264,11126 24264,11126 24264,11126 24264,11125 24264,11125 24257,11125 24248,11125 24239,11125 24238,11125 24237,11125 24236,11125 24236,11125 24234,11126 24233,11126 24231,11127 24231,11127 24230,11127 24230,11127 24229,11127 24225,11127 24224,11127 24224,11127 24224,11127 24223,11128 24223,11128 24222,11128 24222,11128 24221,11129 24221,11129 24220,11129 24220,11130 24216,11130 24215,11130 24215,11130 24214,11131 24214,11131 24214,11131 24213,11131 24213,11131 24213,11132 24212,11132 24212,11132 24211,11132 24211,11132 24211,11132 24210,11132 24210,11132 24209,11132 24209,11132 24209,11133 24208,11133 24207,11133 24207,11134 24207,11134 24207,11134 24206,11134 24206,11134 24205,11134 24205,11135 24205,11135 24205,11135 24204,11135 24204,11136 24204,11136 24203,11136 24203,11136 24203,11136 24202,11136 24202,11136 24202,11137 24201,11137 24201,11138 24200,11138 24199,11138 24198,11139 24196,11140 24194,11140 24193,11141 24186,11148 24179,11155 24172,11162 24171,11163 24170,11164 24169,11165 24168,11166 24167,11168 24166,11169 24165,11171 24163,11173 24163,11173 24163,11174 24163,11174 24163,11175 24163,11175 24162,11175 24162,11176 24162,11177 24161,11177 24161,11177 24161,11178 24161,11178 24161,11178 24161,11179 24160,11179 24160,11179 24160,11179 24160,11180 24159,11180 24159,11181 24159,11181 24159,11181 24159,11181 24159,11182 24159,11182 24159,11183 24158,11183 24158,11183 24158,11184 24158,11184 24158,11184 24157,11184 24157,11185 24157,11185 24157,11185 24156,11186 24156,11186 24156,11186 24156,11187 24156,11187 24156,11188 24156,11188 24156,11189 24156,11189 24156,11189 24156,11189 24156,11189 24155,11190 24154,11191 24154,11196 24154,11196 24153,11197 24153,11197 24153,11198 24152,11199 24152,11199 24152,11200 24152,11202 24152,11203 24152,11205 24152,11206 24152,11207 24151,11207 24151,11208 24151,11209 24151,11210 24150,11212 24150,11213 24149,11213 24149,11214 24149,11214 24149,11226 Z"/>
          </g>
         </g>
        </g>
       </g>
       <g class="com.sun.star.drawing.ClosedBezierShape">
        <g id="id44">
         <rect class="BoundingBox" stroke="none" fill="none" x="22528" y="9862" width="1365" height="1459"/>
         <g>
          <defs>
           <linearGradient id="gradient24" x1="22373" y1="10287" x2="24045" y2="10895" gradientUnits="userSpaceOnUse">
            <stop offset="0" style="stop-color:rgb(212,179,144)"/>
            <stop offset="1" style="stop-color:rgb(159,124,86)"/>
           </linearGradient>
          </defs>
          <path style="fill:url(#gradient24)" d="M 22873,10983 L 22713,11319 22528,11319 23230,9863 23891,11319 23710,11319 23555,10983 23484,10821 23223,10258 22951,10821 22873,10983 Z"/>
         </g>
        </g>
       </g>
       <g class="com.sun.star.drawing.PolyPolygonShape">
        <g id="id45">
         <rect class="BoundingBox" stroke="none" fill="none" x="23111" y="10868" width="2" height="2"/>
        </g>
       </g>
      </g>
     </g>
    </g>
   </g>
  </g>
 </g>
</svg>