<?xml version="1.0" encoding="UTF-8"?>
<!DOCTYPE svg PUBLIC "-//W3C//DTD SVG 1.1//EN" "http://www.w3.org/Graphics/SVG/1.1/DTD/svg11.dtd">
<svg version="1.2" width="500mm" height="200mm" viewBox="0 0 50000 20000" preserveAspectRatio="xMidYMid" fill-rule="evenodd" stroke-width="28.222" stroke-linejoin="round" xmlns="http://www.w3.org/2000/svg" xmlns:ooo="http://xml.openoffice.org/svg/export" xmlns:xlink="http://www.w3.org/1999/xlink" xmlns:presentation="http://sun.com/xmlns/staroffice/presentation" xmlns:smil="http://www.w3.org/2001/SMIL20/" xmlns:anim="urn:oasis:names:tc:opendocument:xmlns:animation:1.0" xml:space="preserve">
 <defs class="ClipPathGroup">
  <clipPath id="presentation_clip_path" clipPathUnits="userSpaceOnUse">
   <rect x="0" y="0" width="50000" height="20000"/>
  </clipPath>
  <clipPath id="presentation_clip_path_shrink" clipPathUnits="userSpaceOnUse">
   <rect x="50" y="20" width="49900" height="19960"/>
  </clipPath>
 </defs>
 <defs class="TextShapeIndex">
  <g ooo:slide="id1" ooo:id-list="id3 id4 id5 id6 id7 id8 id9 id10 id11 id12 id13 id14 id15 id16 id17 id18 id19 id20 id21 id22 id23 id24 id25 id26 id27 id28 id29 id30 id31 id32 id33 id34 id35 id36 id37 id38 id39 id40 id41 id42 id43 id44 id45"/>
 </defs>
 <defs class="EmbeddedBulletChars">
  <g id="bullet-char-template-57356" transform="scale(0.00048828125,-0.00048828125)">
   <path d="M 580,1141 L 1163,571 580,0 -4,571 580,1141 Z"/>
  </g>
  <g id="bullet-char-template-57354" transform="scale(0.00048828125,-0.00048828125)">
   <path d="M 8,1128 L 1137,1128 1137,0 8,0 8,1128 Z"/>
  </g>
  <g id="bullet-char-template-10146" transform="scale(0.00048828125,-0.00048828125)">
   <path d="M 174,0 L 602,739 174,1481 1456,739 174,0 Z M 1358,739 L 309,1346 659,739 1358,739 Z"/>
  </g>
  <g id="bullet-char-template-10132" transform="scale(0.00048828125,-0.00048828125)">
   <path d="M 2015,739 L 1276,0 717,0 1260,543 174,543 174,936 1260,936 717,1481 1274,1481 2015,739 Z"/>
  </g>
  <g id="bullet-char-template-10007" transform="scale(0.00048828125,-0.00048828125)">
   <path d="M 0,-2 C -7,14 -16,27 -25,37 L 356,567 C 262,823 215,952 215,954 215,979 228,992 255,992 264,992 276,990 289,987 310,991 331,999 354,1012 L 381,999 492,748 772,1049 836,1024 860,1049 C 881,1039 901,1025 922,1006 886,937 835,863 770,784 769,783 710,716 594,584 L 774,223 C 774,196 753,168 711,139 L 727,119 C 717,90 699,76 672,76 641,76 570,178 457,381 L 164,-76 C 142,-110 111,-127 72,-127 30,-127 9,-110 8,-76 1,-67 -2,-52 -2,-32 -2,-23 -1,-13 0,-2 Z"/>
  </g>
  <g id="bullet-char-template-10004" transform="scale(0.00048828125,-0.00048828125)">
   <path d="M 285,-33 C 182,-33 111,30 74,156 52,228 41,333 41,471 41,549 55,616 82,672 116,743 169,778 240,778 293,778 328,747 346,684 L 369,508 C 377,444 397,411 428,410 L 1163,1116 C 1174,1127 1196,1133 1229,1133 1271,1133 1292,1118 1292,1087 L 1292,965 C 1292,929 1282,901 1262,881 L 442,47 C 390,-6 338,-33 285,-33 Z"/>
  </g>
  <g id="bullet-char-template-9679" transform="scale(0.00048828125,-0.00048828125)">
   <path d="M 813,0 C 632,0 489,54 383,161 276,268 223,411 223,592 223,773 276,916 383,1023 489,1130 632,1184 813,1184 992,1184 1136,1130 1245,1023 1353,916 1407,772 1407,592 1407,412 1353,268 1245,161 1136,54 992,0 813,0 Z"/>
  </g>
  <g id="bullet-char-template-8226" transform="scale(0.00048828125,-0.00048828125)">
   <path d="M 346,457 C 273,457 209,483 155,535 101,586 74,649 74,723 74,796 101,859 155,911 209,963 273,989 346,989 419,989 480,963 531,910 582,859 608,796 608,723 608,648 583,586 532,535 482,483 420,457 346,457 Z"/>
  </g>
  <g id="bullet-char-template-8211" transform="scale(0.00048828125,-0.00048828125)">
   <path d="M -4,459 L 1135,459 1135,606 -4,606 -4,459 Z"/>
  </g>
  <g id="bullet-char-template-61548" transform="scale(0.00048828125,-0.00048828125)">
   <path d="M 173,740 C 173,903 231,1043 346,1159 462,1274 601,1332 765,1332 928,1332 1067,1274 1183,1159 1299,1043 1357,903 1357,740 1357,577 1299,437 1183,322 1067,206 928,148 765,148 601,148 462,206 346,322 231,437 173,577 173,740 Z"/>
  </g>
 </defs>
 <g>
  <g id="id2" class="Master_Slide">
   <g id="bg-id2" class="Background"/>
   <g id="bo-id2" class="BackgroundObjects"/>
  </g>
 </g>
 <g class="SlideGroup">
  <g>
   <g id="container-id1">
    <g id="id1" class="Slide" clip-path="url(#presentation_clip_path)">
     <g class="Page">
      <g class="com.sun.star.drawing.ClosedBezierShape">
       <g id="id3">
        <rect class="BoundingBox" stroke="none" fill="none" x="2534" y="8559" width="20732" height="5122"/>
        <path fill="rgb(0,0,0)" stroke="none" d="M 11027,9627 C 11038,9554 11068,9508 11109,9488 11152,9470 11198,9467 11242,9486 11287,9502 11326,9534 11358,9582 11390,9630 11404,9682 11399,9742 11386,9803 11372,9881 11358,9982 11342,10080 11331,10190 11319,10316 11308,10439 11301,10572 11294,10711 11287,10851 11283,10992 11283,11134 11283,11221 11290,11322 11303,11436 11315,11550 11338,11660 11365,11774 11392,11884 11429,11987 11470,12079 11514,12172 11571,12239 11637,12280 11706,12321 11788,12328 11879,12303 11971,12277 12078,12200 12200,12069 12314,11948 12431,11811 12549,11653 12668,11495 12780,11333 12886,11166 12991,10992 13089,10821 13178,10647 13270,10473 13347,10311 13411,10155 13425,10126 13444,10119 13469,10137 13496,10158 13503,10176 13496,10194 13430,10348 13352,10514 13258,10693 13167,10871 13069,11050 12961,11230 12858,11409 12746,11578 12627,11742 12511,11905 12389,12044 12270,12168 12110,12328 11969,12435 11845,12481 11729,12527 11626,12534 11532,12506 10149,12783 8699,11955 7315,11164 6227,10540 5184,9941 4265,9941 2879,9941 2056,11468 3028,12650 1974,11596 2710,9794 4265,9794 5221,9794 6284,10402 7386,11036 8694,11784 10057,12566 11344,12389 11317,12360 11290,12328 11264,12291 11196,12191 11139,12076 11093,11944 11049,11813 11013,11676 10990,11532 10965,11388 10951,11253 10942,11130 10933,10972 10931,10819 10933,10665 10933,10510 10940,10366 10949,10233 10958,10101 10969,9979 10985,9874 10999,9769 11013,9687 11027,9627 Z M 11027,9627 L 11027,9627 Z M 14303,11280 C 16887,10759 19496,13535 21780,13535 23299,13535 23900,12607 22185,11463 23900,12607 23427,13679 21780,13679 19485,13679 16869,10940 14360,11418 14399,11553 14427,11690 14440,11825 14459,11971 14461,12111 14447,12243 14436,12376 14406,12499 14358,12616 14310,12732 14246,12835 14164,12920 14075,13014 13972,13082 13855,13123 13741,13162 13626,13169 13521,13142 13411,13114 13320,13046 13245,12938 13167,12831 13123,12678 13114,12476 13087,11866 13386,11557 13949,11377 13876,11210 13809,11075 13720,10908 13631,10741 13542,10574 13460,10414 13375,10249 13302,10087 13245,9922 13183,9760 13149,9598 13139,9440 13128,9220 13160,9051 13240,8928 13320,8806 13405,8736 13496,8715 13590,8697 13672,8731 13745,8825 13819,8918 13844,9072 13816,9284 13805,9401 13777,9513 13743,9620 13706,9728 13670,9835 13636,9943 13722,10183 13830,10414 13965,10633 14091,10844 14203,11059 14303,11280 Z M 14303,11280 L 14303,11280 Z M 11335,8559 C 11397,8559 11445,8578 11486,8619 11527,8660 11548,8720 11548,8795 11548,8866 11525,8921 11479,8962 11436,9008 11383,9028 11322,9028 11258,9024 11203,8998 11161,8953 11118,8909 11097,8850 11097,8777 11097,8699 11120,8644 11168,8610 11216,8575 11271,8559 11335,8559 Z M 11335,8559 L 11335,8559 Z M 13585,9826 C 13606,9728 13631,9636 13663,9547 13695,9458 13711,9364 13720,9266 13734,9163 13732,9081 13716,9021 13702,8962 13681,8925 13656,8912 13631,8898 13604,8912 13574,8953 13546,8996 13524,9065 13508,9168 13485,9277 13482,9387 13501,9497 13519,9609 13546,9719 13585,9826 Z M 13585,9826 L 13585,9826 Z M 14017,11527 C 13462,11678 13178,11891 13192,12476 13197,12678 13238,12822 13315,12911 13398,12998 13487,13034 13588,13023 13688,13009 13786,12947 13885,12835 13981,12726 14047,12572 14081,12378 14107,12232 14113,12083 14097,11928 14081,11774 14063,11667 14017,11527 Z"/>
       </g>
      </g>
      <g class="com.sun.star.drawing.ClosedBezierShape">
       <g id="id4">
        <rect class="BoundingBox" stroke="none" fill="none" x="6668" y="6250" width="12313" height="7501"/>
        <path fill="rgb(0,0,0)" stroke="none" d="M 6813,13750 C 6719,13320 6668,12874 6668,12412 6668,12124 6689,11841 6726,11562 L 6796,11603 C 6760,11866 6739,12140 6739,12412 6739,12872 6794,13318 6893,13748 L 6813,13750 Z M 6813,13750 L 6813,13750 Z M 7105,10126 C 8013,7853 10236,6250 12833,6250 16069,6250 18719,8738 18979,11905 L 18902,11864 C 18618,8834 16011,6458 12833,6458 10279,6458 8093,7992 7188,10171 7160,10158 7133,10142 7105,10126 Z M 7105,10126 L 7105,10126 Z M 18909,13464 C 18893,13560 18874,13656 18854,13750 L 18774,13748 C 18799,13643 18819,13535 18838,13430 18863,13441 18886,13453 18909,13464 Z"/>
       </g>
      </g>
      <g class="com.sun.star.drawing.ClosedBezierShape">
       <g id="id5">
        <rect class="BoundingBox" stroke="none" fill="none" x="27275" y="11769" width="14963" height="725"/>
        <path fill="rgb(0,0,0)" stroke="none" d="M 27668,12193 C 27700,12200 27730,12218 27746,12241 27767,12266 27778,12296 27778,12332 27778,12380 27758,12419 27721,12444 27680,12470 27625,12486 27554,12486 L 27275,12486 27275,11918 27536,11918 C 27604,11918 27655,11932 27691,11960 27728,11985 27746,12019 27746,12065 27746,12095 27739,12120 27726,12143 27710,12165 27691,12181 27668,12193 Z M 27668,12193 L 27668,12193 Z M 27357,11985 L 27357,12168 27529,12168 C 27572,12168 27604,12159 27627,12143 27650,12127 27664,12104 27664,12074 27664,12046 27650,12021 27627,12008 27604,11992 27572,11985 27529,11985 L 27357,11985 Z M 27357,11985 L 27357,11985 Z M 27552,12419 C 27598,12419 27632,12410 27657,12396 27680,12380 27691,12357 27691,12325 27691,12261 27646,12232 27552,12232 L 27357,12232 27357,12419 27552,12419 Z M 27552,12419 L 27552,12419 Z M 28169,11918 L 28252,11918 28252,12486 28169,12486 28169,11918 Z M 28169,11918 L 28169,11918 Z M 28951,12492 C 28892,12492 28839,12479 28793,12454 28743,12428 28707,12394 28679,12348 28654,12307 28640,12257 28640,12202 28640,12147 28654,12097 28679,12053 28707,12010 28743,11976 28793,11950 28839,11925 28892,11912 28951,11912 29011,11912 29063,11925 29109,11950 29159,11976 29194,12010 29221,12051 29248,12097 29262,12147 29262,12202 29262,12257 29248,12307 29221,12351 29194,12394 29159,12428 29109,12454 29063,12479 29011,12492 28951,12492 Z M 28951,12492 L 28951,12492 Z M 28951,12419 C 28995,12419 29034,12410 29068,12392 29102,12373 29127,12346 29148,12314 29166,12282 29178,12243 29178,12202 29178,12163 29166,12122 29148,12090 29127,12056 29102,12030 29068,12012 29034,11992 28995,11985 28951,11985 28910,11985 28869,11992 28835,12012 28798,12030 28773,12056 28752,12090 28732,12122 28725,12163 28725,12202 28725,12243 28732,12282 28752,12314 28773,12346 28798,12373 28835,12392 28869,12410 28910,12419 28951,12419 Z M 28951,12419 L 28951,12419 Z M 30193,12486 L 30191,12072 29980,12415 29941,12415 29729,12074 29729,12486 29651,12486 29651,11918 29720,11918 29964,12316 30204,11918 30273,11918 30273,12486 30193,12486 Z M 30193,12486 L 30193,12486 Z M 31135,12415 L 31135,12486 30710,12486 30710,11918 31121,11918 31121,11989 30792,11989 30792,12165 31087,12165 31087,12232 30792,12232 30792,12415 31135,12415 Z M 31135,12415 L 31135,12415 Z M 31528,11918 L 31775,11918 C 31837,11918 31894,11932 31942,11955 31988,11978 32024,12012 32052,12053 32079,12097 32091,12147 32091,12202 32091,12257 32079,12307 32052,12348 32024,12392 31988,12426 31942,12449 31894,12472 31837,12486 31775,12486 L 31528,12486 31528,11918 Z M 31528,11918 L 31528,11918 Z M 31771,12415 C 31819,12415 31860,12403 31896,12387 31933,12371 31958,12346 31979,12314 31999,12282 32008,12245 32008,12202 32008,12161 31999,12122 31979,12090 31958,12058 31933,12033 31896,12017 31860,11996 31819,11989 31771,11989 L 31613,11989 31613,12415 31771,12415 Z M 31771,12415 L 31771,12415 Z M 32479,11918 L 32564,11918 32564,12486 32479,12486 32479,11918 Z M 32479,11918 L 32479,11918 Z M 33261,12492 C 33202,12492 33149,12479 33104,12454 33058,12428 33019,12394 32994,12351 32966,12307 32953,12257 32953,12202 32953,12147 32966,12097 32994,12051 33019,12010 33058,11976 33104,11950 33152,11925 33204,11912 33261,11912 33309,11912 33351,11921 33387,11934 33426,11950 33458,11971 33486,12001 L 33431,12051 C 33385,12008 33332,11985 33266,11985 33223,11985 33184,11992 33147,12012 33113,12030 33085,12056 33067,12090 33046,12122 33035,12163 33035,12202 33035,12243 33046,12282 33067,12314 33085,12346 33113,12373 33147,12392 33184,12410 33223,12419 33266,12419 33330,12419 33385,12396 33431,12351 L 33486,12403 C 33458,12433 33426,12454 33387,12467 33351,12483 33309,12492 33261,12492 Z M 33261,12492 L 33261,12492 Z M 33865,11918 L 33947,11918 33947,12486 33865,12486 33865,11918 Z M 33865,11918 L 33865,11918 Z M 34889,11918 L 34889,12486 34821,12486 34469,12063 34469,12486 34384,12486 34384,11918 34453,11918 34807,12341 34807,11918 34889,11918 Z M 34889,11918 L 34889,11918 Z M 35699,12344 L 35388,12344 35324,12486 35239,12486 35502,11918 35587,11918 35852,12486 35763,12486 35699,12344 Z M 35699,12344 L 35699,12344 Z M 35671,12280 L 35546,12001 35418,12280 35671,12280 Z M 35671,12280 L 35671,12280 Z M 36849,12415 L 36849,12486 36424,12486 36424,11918 36838,11918 36838,11989 36508,11989 36508,12165 36801,12165 36801,12232 36508,12232 36508,12415 36849,12415 Z M 36849,12415 L 36849,12415 Z M 37416,12492 C 37370,12492 37329,12486 37288,12470 37247,12458 37215,12440 37192,12419 L 37224,12357 C 37245,12376 37274,12392 37306,12403 37343,12417 37377,12421 37416,12421 37464,12421 37501,12415 37524,12399 37546,12383 37560,12362 37560,12337 37560,12316 37553,12300 37540,12287 37528,12277 37512,12266 37492,12259 37473,12255 37446,12248 37412,12239 37366,12227 37332,12218 37304,12209 37277,12197 37254,12181 37233,12161 37215,12138 37206,12108 37206,12074 37206,12044 37215,12017 37229,11992 37247,11966 37272,11948 37304,11934 37338,11921 37380,11912 37430,11912 37464,11912 37498,11916 37533,11925 37565,11932 37595,11946 37617,11962 L 37590,12026 C 37565,12012 37540,12001 37512,11992 37482,11985 37457,11982 37430,11982 37382,11982 37348,11989 37322,12005 37300,12021 37288,12044 37288,12072 37288,12090 37293,12106 37306,12117 37320,12129 37338,12140 37357,12147 37377,12154 37405,12163 37437,12168 37480,12179 37517,12191 37542,12197 37572,12209 37595,12227 37613,12245 37631,12266 37643,12296 37643,12330 37643,12360 37633,12387 37615,12410 37601,12435 37574,12456 37540,12470 37508,12483 37466,12492 37416,12492 Z M 37416,12492 L 37416,12492 Z M 38132,11989 L 37931,11989 37931,11918 38415,11918 38415,11989 38216,11989 38216,12486 38132,12486 38132,11989 Z M 38132,11989 L 38132,11989 Z M 39193,12415 L 39193,12486 38768,12486 38768,11918 39181,11918 39181,11989 38850,11989 38850,12165 39145,12165 39145,12232 38850,12232 38850,12415 39193,12415 Z M 39193,12415 L 39193,12415 Z M 39026,11770 L 39129,11770 38987,11873 38912,11873 39026,11770 Z M 39026,11770 L 39026,11770 Z M 39705,11989 L 39504,11989 39504,11918 39989,11918 39989,11989 39787,11989 39787,12486 39705,12486 39705,11989 Z M 39705,11989 L 39705,11989 Z M 40338,11918 L 40423,11918 40423,12486 40338,12486 40338,11918 Z M 40338,11918 L 40338,11918 Z M 41120,12492 C 41063,12492 41011,12479 40963,12454 40915,12428 40880,12394 40851,12351 40825,12307 40812,12257 40812,12202 40812,12147 40825,12097 40851,12051 40880,12010 40915,11976 40963,11950 41011,11925 41063,11912 41123,11912 41168,11912 41210,11921 41248,11934 41285,11950 41319,11971 41345,12001 L 41290,12051 C 41246,12008 41191,11985 41125,11985 41082,11985 41043,11992 41008,12012 40972,12030 40947,12056 40926,12090 40905,12122 40894,12163 40894,12202 40894,12243 40905,12282 40926,12314 40947,12346 40972,12373 41008,12392 41043,12410 41082,12419 41125,12419 41191,12419 41246,12396 41290,12351 L 41345,12403 C 41319,12433 41285,12454 41248,12467 41207,12483 41166,12492 41120,12492 Z M 41120,12492 L 41120,12492 Z M 42083,12344 L 41772,12344 41708,12486 41621,12486 41886,11918 41969,11918 42236,12486 42147,12486 42083,12344 Z M 42083,12344 L 42083,12344 Z M 42053,12280 L 41928,12001 41802,12280 42053,12280 Z"/>
       </g>
      </g>
      <g class="com.sun.star.drawing.PolyPolygonShape">
       <g id="id6">
        <rect class="BoundingBox" stroke="none" fill="none" x="25043" y="9929" width="167" height="1392"/>
        <path fill="rgb(0,0,0)" stroke="none" d="M 25208,11319 L 25043,11319 25043,9929 25208,9929 25208,11319 Z"/>
       </g>
      </g>
      <g class="com.sun.star.drawing.PolyPolygonShape">
       <g id="id7">
        <rect class="BoundingBox" stroke="none" fill="none" x="25208" y="11319" width="2" height="2"/>
        <path fill="rgb(0,0,0)" stroke="none" d="M 25208,11319 L 25208,11319 Z"/>
       </g>
      </g>
      <g class="com.sun.star.drawing.PolyPolygonShape">
       <g id="id8">
        <rect class="BoundingBox" stroke="none" fill="none" x="25701" y="9929" width="995" height="1392"/>
        <path fill="rgb(0,0,0)" stroke="none" d="M 26390,10091 L 25702,10091 25702,9929 26665,9929 26006,11157 26694,11157 26694,11319 25727,11319 26390,10091 Z"/>
       </g>
      </g>
      <g class="com.sun.star.drawing.PolyPolygonShape">
       <g id="id9">
        <rect class="BoundingBox" stroke="none" fill="none" x="26390" y="10089" width="2" height="2"/>
        <path fill="rgb(0,0,0)" stroke="none" d="M 26390,10089 L 26390,10089 Z"/>
       </g>
      </g>
      <g class="com.sun.star.drawing.PolyPolygonShape">
       <g id="id10">
        <rect class="BoundingBox" stroke="none" fill="none" x="27044" y="9862" width="1365" height="1459"/>
        <path fill="rgb(0,0,0)" stroke="none" d="M 27389,10983 L 27229,11319 27044,11319 27746,9863 28407,11319 28226,11319 28071,10983 28000,10821 27739,10258 27467,10821 27389,10983 Z"/>
       </g>
      </g>
      <g class="com.sun.star.drawing.PolyPolygonShape">
       <g id="id11">
        <rect class="BoundingBox" stroke="none" fill="none" x="27389" y="10983" width="2" height="2"/>
        <path fill="rgb(0,0,0)" stroke="none" d="M 27389,10983 L 27389,10983 Z"/>
       </g>
      </g>
      <g class="com.sun.star.drawing.PolyPolygonShape">
       <g id="id12">
        <rect class="BoundingBox" stroke="none" fill="none" x="29552" y="10553" width="2" height="2"/>
        <path fill="rgb(0,0,0)" stroke="none" d="M 29553,10553 L 29553,10553 Z"/>
       </g>
      </g>
      <g class="com.sun.star.drawing.PolyPolygonShape">
       <g id="id13">
        <rect class="BoundingBox" stroke="none" fill="none" x="30238" y="10541" width="960" height="780"/>
        <path fill="rgb(0,0,0)" stroke="none" d="M 30405,10542 L 30922,10542 31021,10542 31021,10704 30405,10704 30405,11152 31197,11152 31197,11319 30239,11319 30239,10542 30405,10542 Z"/>
       </g>
      </g>
      <g class="com.sun.star.drawing.PolyPolygonShape">
       <g id="id14">
        <rect class="BoundingBox" stroke="none" fill="none" x="30407" y="10541" width="2" height="2"/>
        <path fill="rgb(0,0,0)" stroke="none" d="M 30408,10542 L 30408,10542 Z"/>
       </g>
      </g>
      <g class="com.sun.star.drawing.PolyPolygonShape">
       <g id="id15">
        <rect class="BoundingBox" stroke="none" fill="none" x="30238" y="9929" width="960" height="164"/>
        <path fill="rgb(0,0,0)" stroke="none" d="M 30239,10091 L 30239,9929 31197,9929 31197,10091 30922,10091 30405,10091 30239,10091 Z"/>
       </g>
      </g>
      <g class="com.sun.star.drawing.PolyPolygonShape">
       <g id="id16">
        <rect class="BoundingBox" stroke="none" fill="none" x="30238" y="10089" width="2" height="2"/>
        <path fill="rgb(0,0,0)" stroke="none" d="M 30239,10089 L 30239,10089 Z"/>
       </g>
      </g>
      <g class="com.sun.star.drawing.PolyPolygonShape">
       <g id="id17">
        <rect class="BoundingBox" stroke="none" fill="none" x="31658" y="9929" width="937" height="1392"/>
        <path fill="rgb(0,0,0)" stroke="none" d="M 31825,11157 L 32594,11157 32594,11319 31659,11319 31659,9929 31825,9929 31825,11157 Z"/>
       </g>
      </g>
      <g class="com.sun.star.drawing.PolyPolygonShape">
       <g id="id18">
        <rect class="BoundingBox" stroke="none" fill="none" x="31827" y="11157" width="2" height="2"/>
        <path fill="rgb(0,0,0)" stroke="none" d="M 31828,11157 L 31828,11157 Z"/>
       </g>
      </g>
      <g class="com.sun.star.drawing.PolyPolygonShape">
       <g id="id19">
        <rect class="BoundingBox" stroke="none" fill="none" x="33055" y="9929" width="937" height="1392"/>
        <path fill="rgb(0,0,0)" stroke="none" d="M 33223,11157 L 33991,11157 33991,11319 33056,11319 33056,9929 33223,9929 33223,11157 Z"/>
       </g>
      </g>
      <g class="com.sun.star.drawing.PolyPolygonShape">
       <g id="id20">
        <rect class="BoundingBox" stroke="none" fill="none" x="33222" y="11157" width="2" height="2"/>
        <path fill="rgb(0,0,0)" stroke="none" d="M 33223,11157 L 33223,11157 Z"/>
       </g>
      </g>
      <g class="com.sun.star.drawing.PolyPolygonShape">
       <g id="id21">
        <rect class="BoundingBox" stroke="none" fill="none" x="34452" y="10541" width="960" height="780"/>
        <path fill="rgb(0,0,0)" stroke="none" d="M 34620,10542 L 35168,10542 35235,10542 35235,10704 34620,10704 34620,11152 35411,11152 35411,11319 34453,11319 34453,10542 34620,10542 Z"/>
       </g>
      </g>
      <g class="com.sun.star.drawing.PolyPolygonShape">
       <g id="id22">
        <rect class="BoundingBox" stroke="none" fill="none" x="34621" y="10541" width="2" height="2"/>
        <path fill="rgb(0,0,0)" stroke="none" d="M 34622,10542 L 34622,10542 Z"/>
       </g>
      </g>
      <g class="com.sun.star.drawing.PolyPolygonShape">
       <g id="id23">
        <rect class="BoundingBox" stroke="none" fill="none" x="34452" y="9929" width="960" height="164"/>
        <path fill="rgb(0,0,0)" stroke="none" d="M 34453,10091 L 34453,9929 35411,9929 35411,10091 35168,10091 34620,10091 34453,10091 Z"/>
       </g>
      </g>
      <g class="com.sun.star.drawing.PolyPolygonShape">
       <g id="id24">
        <rect class="BoundingBox" stroke="none" fill="none" x="34452" y="10089" width="2" height="2"/>
        <path fill="rgb(0,0,0)" stroke="none" d="M 34453,10089 L 34453,10089 Z"/>
       </g>
      </g>
      <g class="com.sun.star.drawing.ClosedBezierShape">
       <g id="id25">
        <rect class="BoundingBox" stroke="none" fill="none" x="36554" y="9910" width="1056" height="1425"/>
        <path fill="rgb(0,0,0)" stroke="none" d="M 37386,10611 C 37453,10647 37508,10693 37549,10752 37588,10807 37608,10869 37608,10933 37608,10992 37595,11047 37567,11095 37537,11148 37496,11191 37448,11226 37338,11301 37215,11333 37082,11333 37018,11333 36952,11324 36888,11306 36829,11287 36771,11260 36716,11223 36636,11166 36579,11093 36559,10995 L 36554,10970 36716,10880 36721,10935 C 36723,11006 36762,11056 36822,11095 36856,11120 36895,11139 36938,11150 36984,11164 37032,11171 37082,11171 37178,11171 37268,11150 37345,11095 37400,11054 37444,11004 37444,10933 37444,10899 37430,10867 37407,10837 37382,10803 37345,10775 37306,10752 37247,10723 37137,10711 37071,10702 37032,10697 36998,10693 36961,10688 36904,10679 36847,10663 36794,10638 36726,10606 36664,10560 36620,10498 36577,10441 36554,10377 36554,10306 36554,10249 36570,10194 36598,10146 36627,10096 36668,10053 36716,10018 36771,9984 36829,9957 36888,9938 36952,9920 37018,9911 37082,9911 37215,9911 37338,9945 37448,10018 37526,10075 37585,10153 37604,10249 L 37608,10274 37446,10364 37444,10306 C 37441,10277 37432,10249 37416,10224 37398,10192 37375,10167 37345,10149 37309,10121 37268,10103 37226,10091 37181,10078 37133,10073 37082,10073 37032,10073 36986,10078 36938,10091 36895,10103 36856,10121 36822,10149 36790,10167 36764,10192 36746,10224 36730,10249 36721,10279 36721,10306 36721,10345 36739,10380 36762,10409 36790,10446 36829,10476 36870,10496 36895,10510 36927,10517 36957,10521 37002,10530 37048,10535 37094,10542 37119,10544 37144,10546 37167,10551 37206,10556 37247,10565 37286,10574 37320,10583 37354,10595 37386,10611 Z"/>
       </g>
      </g>
      <g class="com.sun.star.drawing.PolyPolygonShape">
       <g id="id26">
        <rect class="BoundingBox" stroke="none" fill="none" x="37386" y="10612" width="2" height="2"/>
        <path fill="rgb(0,0,0)" stroke="none" d="M 37386,10613 L 37386,10613 Z"/>
       </g>
      </g>
      <g class="com.sun.star.drawing.ClosedBezierShape">
       <g id="id27">
        <rect class="BoundingBox" stroke="none" fill="none" x="37971" y="9910" width="1322" height="1422"/>
        <path fill="rgb(0,0,0)" stroke="none" d="M 38699,11331 C 38569,11331 38447,11299 38335,11235 38223,11171 38134,11084 38068,10976 38004,10867 37972,10748 37972,10620 37972,10494 38004,10375 38068,10268 38134,10158 38223,10071 38335,10007 38447,9943 38569,9911 38699,9911 38804,9911 38900,9931 38996,9973 39088,10014 39172,10071 39241,10142 L 39266,10169 39136,10279 39115,10254 C 39060,10194 38996,10151 38928,10119 38854,10087 38779,10073 38699,10073 38601,10073 38505,10096 38420,10144 38333,10192 38264,10263 38214,10345 38164,10430 38139,10521 38139,10620 38139,10718 38164,10812 38214,10894 38264,10981 38333,11047 38420,11095 38505,11143 38601,11168 38699,11168 38786,11168 38866,11150 38939,11116 39017,11079 39081,11029 39136,10967 L 39159,10937 39291,11040 39266,11068 C 39197,11150 39115,11216 39014,11262 38916,11310 38809,11331 38699,11331 Z"/>
       </g>
      </g>
      <g class="com.sun.star.drawing.PolyPolygonShape">
       <g id="id28">
        <rect class="BoundingBox" stroke="none" fill="none" x="38698" y="11330" width="2" height="2"/>
        <path fill="rgb(0,0,0)" stroke="none" d="M 38699,11331 L 38699,11331 Z"/>
       </g>
      </g>
      <g class="com.sun.star.drawing.PolyPolygonShape">
       <g id="id29">
        <rect class="BoundingBox" stroke="none" fill="none" x="39686" y="9839" width="1075" height="1393"/>
        <path fill="rgb(0,0,0)" stroke="none" d="M 40590,10617 L 39854,10617 39854,11230 39687,11230 39687,9840 39854,9840 39854,10453 40590,10453 40590,9840 40759,9840 40759,11230 40590,11230 40590,10617 Z"/>
       </g>
      </g>
      <g class="com.sun.star.drawing.PolyPolygonShape">
       <g id="id30">
        <rect class="BoundingBox" stroke="none" fill="none" x="40589" y="10617" width="2" height="2"/>
        <path fill="rgb(0,0,0)" stroke="none" d="M 40590,10617 L 40590,10617 Z"/>
       </g>
      </g>
      <g class="com.sun.star.drawing.PolyPolygonShape">
       <g id="id31">
        <rect class="BoundingBox" stroke="none" fill="none" x="41266" y="9748" width="1484" height="1484"/>
        <path fill="rgb(0,0,0)" stroke="none" d="M 42582,10263 L 42012,11045 41434,10258 41434,11230 41267,11230 41267,9748 42012,10764 42748,9748 42748,11230 42582,11230 42582,10263 Z"/>
       </g>
      </g>
      <g class="com.sun.star.drawing.PolyPolygonShape">
       <g id="id32">
        <rect class="BoundingBox" stroke="none" fill="none" x="42581" y="10262" width="2" height="2"/>
        <path fill="rgb(0,0,0)" stroke="none" d="M 42582,10263 L 42582,10263 Z"/>
       </g>
      </g>
      <g class="com.sun.star.drawing.PolyPolygonShape">
       <g id="id33">
        <rect class="BoundingBox" stroke="none" fill="none" x="43283" y="9839" width="169" height="1393"/>
        <path fill="rgb(0,0,0)" stroke="none" d="M 43450,11230 L 43284,11230 43284,9840 43450,9840 43450,11230 Z"/>
       </g>
      </g>
      <g class="com.sun.star.drawing.PolyPolygonShape">
       <g id="id34">
        <rect class="BoundingBox" stroke="none" fill="none" x="43450" y="11230" width="2" height="2"/>
        <path fill="rgb(0,0,0)" stroke="none" d="M 43450,11230 L 43450,11230 Z"/>
       </g>
      </g>
      <g class="com.sun.star.drawing.PolyPolygonShape">
       <g id="id35">
        <rect class="BoundingBox" stroke="none" fill="none" x="43871" y="9839" width="1255" height="1393"/>
        <path fill="rgb(0,0,0)" stroke="none" d="M 44585,10002 L 44585,11230 44413,11230 44413,10002 43871,10002 43871,9840 45124,9840 45124,10002 44585,10002 Z"/>
       </g>
      </g>
      <g class="com.sun.star.drawing.PolyPolygonShape">
       <g id="id36">
        <rect class="BoundingBox" stroke="none" fill="none" x="44584" y="10000" width="2" height="2"/>
        <path fill="rgb(0,0,0)" stroke="none" d="M 44585,10000 L 44585,10000 Z"/>
       </g>
      </g>
      <g class="com.sun.star.drawing.PolyPolygonShape">
       <g id="id37">
        <rect class="BoundingBox" stroke="none" fill="none" x="45496" y="9839" width="1256" height="1393"/>
        <path fill="rgb(0,0,0)" stroke="none" d="M 46210,10002 L 46210,11230 46039,11230 46039,10002 45497,10002 45497,9840 46750,9840 46750,10002 46210,10002 Z"/>
       </g>
      </g>
      <g class="com.sun.star.drawing.PolyPolygonShape">
       <g id="id38">
        <rect class="BoundingBox" stroke="none" fill="none" x="46210" y="10000" width="2" height="2"/>
        <path fill="rgb(0,0,0)" stroke="none" d="M 46210,10000 L 46210,10000 Z"/>
       </g>
      </g>
      <g class="com.sun.star.drawing.PolyPolygonShape">
       <g id="id39">
        <rect class="BoundingBox" stroke="none" fill="none" x="28955" y="10503" width="2" height="2"/>
        <path fill="rgb(0,0,0)" stroke="none" d="M 28956,10503 L 28956,10503 Z"/>
       </g>
      </g>
      <g class="com.sun.star.drawing.ClosedBezierShape">
       <g id="id40">
        <rect class="BoundingBox" stroke="none" fill="none" x="28788" y="9929" width="1031" height="1392"/>
        <path fill="rgb(0,0,0)" stroke="none" d="M 28956,10505 L 29214,10505 C 29244,10505 29274,10503 29303,10498 29324,10494 29349,10487 29370,10480 29406,10466 29436,10441 29461,10414 29491,10382 29502,10343 29502,10300 29502,10265 29491,10233 29470,10199 29447,10165 29413,10139 29377,10121 29326,10098 29271,10091 29216,10091 L 28956,10091 28956,10505 Z M 28956,10665 L 28956,11157 29326,11157 C 29386,11157 29445,11148 29500,11123 29546,11098 29585,11068 29614,11029 29637,10995 29651,10954 29651,10912 29651,10864 29635,10825 29607,10789 29578,10752 29541,10725 29498,10707 29425,10675 29338,10665 29258,10665 L 28956,10665 Z M 29555,10553 C 29557,10556 29562,10556 29564,10558 29635,10588 29694,10633 29742,10695 29793,10759 29818,10830 29818,10912 29818,10967 29806,11018 29781,11066 29756,11118 29722,11162 29681,11198 29630,11239 29578,11267 29518,11287 29457,11308 29393,11319 29326,11319 L 28789,11319 28791,9929 29216,9929 C 29340,9929 29457,9959 29548,10041 29585,10075 29617,10114 29635,10160 29658,10206 29669,10254 29669,10300 29669,10359 29653,10416 29626,10466 29605,10501 29582,10530 29555,10553 Z"/>
       </g>
      </g>
      <g class="Group">
       <g class="com.sun.star.drawing.ClosedBezierShape">
        <g id="id41">
         <rect class="BoundingBox" stroke="none" fill="none" x="19866" y="9858" width="1143" height="1465"/>
         <path fill="rgb(0,0,0)" stroke="none" d="M 20296,11322 C 20308,11322 20322,11322 20335,11322 20347,11322 20361,11319 20372,11319 20386,11317 20397,11315 20411,11315 20422,11313 20434,11310 20447,11308 20459,11306 20470,11303 20482,11299 20493,11296 20505,11294 20518,11290 20530,11285 20541,11283 20553,11278 20564,11274 20573,11269 20585,11264 20596,11260 20607,11255 20619,11248 20628,11244 20639,11239 20651,11232 20660,11226 20669,11221 20681,11214 20690,11207 20699,11200 20710,11194 20720,11187 20729,11180 20738,11173 20747,11166 20756,11157 20765,11150 20774,11141 20781,11134 20790,11125 20800,11116 20806,11107 20816,11100 20822,11091 20829,11082 20838,11072 20845,11063 20852,11054 20859,11045 20866,11036 20873,11027 20880,11018 20884,11008 20891,10997 20898,10988 20902,10979 20909,10967 20914,10958 20921,10949 20925,10938 20930,10928 20934,10917 20939,10905 20944,10896 20948,10885 20953,10873 20957,10864 20962,10853 20966,10841 20969,10830 20973,10821 20976,10809 20980,10798 20982,10787 20985,10775 20987,10764 20989,10752 20992,10741 20994,10729 20996,10718 20998,10707 21001,10695 21001,10684 21003,10672 21003,10661 21005,10647 21005,10636 21005,10624 21008,10613 21008,10599 21008,10588 21008,10576 21008,10565 21005,10553 21005,10540 21005,10528 21003,10517 21003,10505 21001,10494 21001,10482 20998,10471 20996,10460 20994,10446 20992,10434 20989,10423 20987,10412 20985,10402 20982,10391 20980,10380 20976,10368 20973,10357 20969,10345 20964,10334 20962,10322 20957,10313 20953,10302 20948,10290 20944,10281 20939,10270 20934,10258 20930,10249 20925,10238 20918,10229 20914,10217 20909,10208 20902,10199 20898,10190 20891,10178 20884,10169 20880,10160 20873,10151 20866,10142 20859,10133 20852,10123 20845,10114 20838,10105 20829,10096 20822,10089 20816,10080 20806,10071 20800,10062 20790,10055 20781,10046 20774,10039 20765,10030 20756,10023 20747,10014 20738,10007 20729,10000 20720,9993 20710,9986 20699,9979 20690,9973 20681,9966 20669,9961 20660,9954 20651,9947 20639,9943 20628,9936 20619,9931 20607,9927 20596,9922 20585,9915 20573,9911 20562,9906 20553,9902 20539,9899 20527,9895 20516,9890 20505,9888 20493,9883 20482,9881 20470,9879 20459,9877 20445,9872 20434,9870 20422,9867 20409,9867 20397,9865 20386,9863 20372,9863 20361,9861 20347,9861 20335,9858 20322,9858 20308,9858 20296,9858 20152,9858 20011,9858 19867,9858 19867,10345 19867,10835 19867,11322 20011,11322 20152,11322 20296,11322 Z M 20011,10002 C 20107,10002 20200,10002 20296,10002 20317,10002 20338,10005 20358,10005 20377,10007 20397,10011 20415,10014 20427,10016 20436,10018 20445,10021 20454,10023 20463,10025 20473,10027 20482,10030 20491,10032 20500,10037 20507,10039 20516,10043 20525,10046 20534,10050 20543,10055 20550,10057 20559,10062 20566,10066 20575,10071 20585,10075 20591,10080 20601,10085 20607,10089 20614,10096 20623,10101 20630,10107 20637,10112 20646,10117 20653,10123 20660,10130 20667,10137 20681,10151 20697,10162 20710,10176 20715,10183 20722,10190 20726,10197 20733,10204 20738,10213 20745,10220 20749,10226 20754,10233 20758,10240 20765,10249 20770,10256 20774,10263 20779,10272 20784,10279 20788,10288 20793,10295 20795,10304 20800,10311 20804,10320 20809,10329 20811,10338 20816,10345 20818,10354 20822,10364 20825,10373 20827,10382 20832,10391 20834,10400 20836,10409 20838,10418 20841,10428 20843,10437 20845,10446 20848,10455 20850,10464 20852,10473 20852,10482 20854,10492 20854,10501 20857,10512 20857,10521 20859,10530 20859,10540 20859,10549 20861,10558 20861,10569 20861,10579 20861,10588 20861,10599 20861,10608 20861,10617 20859,10629 20859,10638 20859,10647 20857,10656 20857,10668 20854,10677 20854,10686 20852,10695 20852,10704 20850,10713 20848,10723 20845,10734 20843,10743 20841,10752 20838,10761 20836,10771 20834,10780 20832,10789 20827,10798 20825,10807 20822,10814 20818,10823 20816,10832 20811,10841 20809,10851 20804,10857 20800,10867 20797,10873 20793,10883 20788,10889 20786,10899 20781,10905 20777,10912 20772,10921 20768,10928 20763,10935 20758,10942 20754,10949 20749,10956 20745,10963 20740,10970 20736,10976 20729,10983 20724,10988 20720,10995 20706,11008 20690,11024 20676,11038 20669,11045 20660,11052 20653,11059 20644,11063 20637,11070 20630,11077 20621,11082 20614,11086 20605,11093 20596,11098 20589,11102 20580,11107 20573,11111 20564,11118 20555,11123 20546,11125 20539,11130 20530,11134 20521,11136 20511,11141 20502,11146 20493,11148 20484,11150 20475,11155 20466,11157 20457,11159 20447,11162 20436,11164 20427,11166 20418,11168 20409,11171 20399,11173 20388,11173 20379,11175 20367,11175 20358,11178 20338,11178 20317,11180 20296,11180 20200,11180 20107,11180 20011,11180 20011,10789 20011,10396 20011,10002 Z"/>
        </g>
       </g>
       <g class="com.sun.star.drawing.ClosedBezierShape">
        <g id="id42">
         <rect class="BoundingBox" stroke="none" fill="none" x="21323" y="9858" width="1015" height="1465"/>
         <path fill="rgb(0,0,0)" stroke="none" d="M 22171,11322 C 21973,11068 21771,10816 21572,10563 21636,10563 21703,10563 21769,10563 21780,10563 21794,10563 21806,10560 21819,10560 21831,10560 21842,10560 21854,10558 21865,10558 21877,10556 21888,10556 21899,10553 21911,10551 21920,10549 21931,10549 21943,10546 21952,10544 21961,10542 21970,10540 21979,10535 21989,10533 21998,10530 22007,10528 22016,10524 22025,10521 22030,10517 22034,10514 22041,10512 22046,10510 22050,10505 22057,10503 22062,10501 22066,10496 22071,10492 22075,10489 22080,10485 22087,10480 22091,10478 22096,10473 22101,10469 22105,10464 22110,10460 22114,10455 22119,10450 22123,10446 22128,10439 22130,10434 22135,10430 22139,10423 22144,10418 22149,10414 22151,10407 22155,10402 22158,10396 22162,10391 22165,10384 22169,10380 22171,10373 22174,10366 22176,10361 22178,10354 22181,10350 22183,10343 22183,10336 22185,10332 22188,10325 22188,10318 22188,10311 22190,10306 22190,10300 22190,10293 22190,10286 22190,10279 22190,10274 22190,10268 22190,10263 22190,10256 22190,10252 22188,10245 22188,10240 22185,10236 22185,10229 22183,10224 22183,10217 22181,10213 22178,10206 22176,10201 22174,10194 22171,10190 22169,10185 22167,10178 22165,10174 22160,10169 22158,10162 22155,10158 22151,10151 22149,10146 22144,10142 22142,10137 22137,10130 22133,10126 22128,10121 22126,10117 22121,10112 22117,10107 22112,10103 22105,10098 22101,10094 22096,10089 22091,10085 22087,10080 22080,10075 22075,10071 22069,10069 22064,10064 22057,10059 22050,10055 22046,10053 22039,10048 22032,10046 22025,10041 22018,10039 22011,10034 22005,10032 21998,10030 21991,10025 21984,10023 21977,10021 21970,10018 21961,10016 21954,10014 21947,10011 21938,10011 21931,10009 21925,10007 21915,10007 21909,10005 21899,10005 21890,10002 21883,10002 21874,10002 21865,10000 21858,10000 21849,10000 21840,10000 21716,10000 21591,10000 21467,10000 21467,10441 21467,10883 21467,11322 21419,11322 21371,11322 21323,11322 21323,10835 21323,10345 21323,9858 21495,9858 21668,9858 21840,9858 21849,9858 21858,9858 21865,9858 21874,9858 21883,9861 21890,9861 21899,9861 21909,9863 21915,9863 21925,9865 21934,9865 21941,9867 21950,9867 21957,9870 21966,9872 21973,9874 21982,9874 21989,9877 21998,9879 22005,9881 22014,9883 22021,9886 22027,9888 22037,9893 22043,9895 22050,9897 22059,9899 22066,9904 22073,9906 22080,9911 22087,9913 22094,9918 22101,9920 22107,9925 22114,9929 22121,9931 22128,9936 22135,9941 22142,9945 22149,9950 22153,9952 22160,9957 22167,9961 22171,9966 22178,9973 22185,9977 22190,9982 22197,9986 22201,9991 22206,9998 22213,10002 22217,10007 22222,10011 22229,10018 22233,10023 22238,10030 22242,10034 22247,10039 22252,10046 22256,10050 22261,10057 22263,10062 22268,10069 22272,10075 22277,10080 22279,10087 22284,10091 22286,10098 22290,10105 22293,10112 22297,10117 22300,10123 22302,10130 22304,10137 22309,10142 22311,10149 22313,10155 22316,10162 22318,10169 22320,10174 22320,10181 22322,10188 22325,10194 22327,10201 22327,10208 22329,10215 22329,10220 22332,10226 22332,10233 22334,10240 22334,10247 22334,10254 22334,10261 22334,10268 22334,10274 22336,10279 22334,10290 22334,10302 22334,10311 22332,10322 22332,10332 22329,10341 22329,10352 22327,10361 22325,10370 22322,10382 22318,10391 22316,10400 22313,10409 22309,10418 22306,10428 22302,10437 22297,10446 22293,10455 22288,10464 22281,10473 22277,10482 22270,10489 22265,10498 22258,10508 22252,10514 22247,10524 22240,10530 22233,10540 22226,10546 22220,10553 22213,10560 22206,10567 22199,10574 22192,10581 22185,10585 22178,10592 22171,10599 22165,10604 22158,10608 22149,10613 22142,10620 22135,10624 22128,10629 22119,10631 22112,10636 22105,10640 22096,10645 22089,10647 22075,10652 22062,10659 22050,10663 22043,10665 22037,10668 22030,10670 22025,10672 22018,10675 22011,10677 22007,10679 22000,10679 21993,10681 21989,10684 21982,10684 21977,10686 21970,10686 21963,10688 21959,10688 21952,10691 21947,10691 21943,10693 21931,10693 21920,10695 21909,10695 21899,10695 21890,10697 21879,10697 21870,10697 21861,10700 21851,10700 21842,10700 21833,10700 21824,10700 21995,10908 22167,11116 22336,11322 22281,11322 22226,11322 22171,11322 Z"/>
        </g>
       </g>
       <g class="com.sun.star.drawing.ClosedBezierShape">
        <g id="id43">
         <rect class="BoundingBox" stroke="none" fill="none" x="24149" y="11124" width="201" height="199"/>
         <path fill="rgb(0,0,0)" stroke="none" d="M 24149,11226 C 24149,11228 24149,11232 24149,11235 24149,11239 24152,11242 24152,11244 24152,11246 24152,11248 24152,11251 L 24154,11253 C 24154,11255 24154,11258 24154,11258 24156,11260 24156,11262 24156,11262 24156,11264 24159,11267 24159,11267 24159,11269 24161,11269 24161,11271 24161,11274 24163,11274 24163,11276 L 24165,11278 C 24168,11283 24170,11285 24172,11287 24175,11290 24177,11292 24179,11294 24181,11296 24184,11299 24186,11301 24188,11303 24191,11303 24193,11306 24197,11308 24200,11310 24202,11310 24204,11312 24207,11313 24211,11315 24213,11315 24216,11317 24220,11317 24223,11319 24225,11319 24229,11319 24232,11319 24234,11322 24239,11322 24241,11322 24243,11322 24248,11322 24250,11322 24255,11322 24257,11322 24261,11322 24264,11319 24268,11319 24271,11319 24273,11319 24277,11317 24280,11317 24282,11315 24287,11315 24289,11313 24291,11312 24293,11310 24298,11308 24300,11308 24303,11306 24305,11303 24307,11301 24312,11301 24314,11299 24316,11296 24319,11294 24321,11292 24323,11290 24325,11285 24328,11283 24330,11280 24332,11278 24332,11278 24332,11276 24335,11274 24335,11274 24335,11271 24337,11271 24337,11269 24337,11267 24339,11267 24339,11264 24339,11264 24341,11262 24341,11260 24341,11260 24341,11258 24344,11258 24344,11255 24344,11253 24344,11253 24344,11251 24346,11248 24346,11248 24346,11246 24346,11244 24346,11244 24346,11242 24346,11239 24348,11239 24348,11237 24348,11235 24348,11232 24348,11228 24348,11226 24348,11223 24348,11219 24348,11216 24348,11214 24348,11212 24346,11212 24346,11210 24346,11207 24346,11207 24346,11205 24346,11203 24346,11203 24344,11200 24344,11198 24344,11198 24344,11196 24344,11196 24341,11194 24341,11191 24341,11191 24341,11189 24339,11187 24337,11182 24337,11180 24335,11178 24332,11175 24332,11173 24330,11168 24328,11166 24325,11164 24323,11162 24321,11159 24319,11157 24316,11155 24314,11150 24312,11148 24309,11146 24305,11146 24303,11143 24303,11141 24300,11141 24298,11139 24298,11139 24296,11139 24296,11136 24293,11136 24291,11136 24291,11134 24289,11134 24287,11134 24287,11132 24284,11132 24282,11132 24282,11132 24280,11130 24277,11130 24277,11130 24275,11130 24273,11130 24273,11127 24271,11127 24268,11127 24268,11127 24266,11127 24264,11127 24264,11125 24261,11125 24259,11125 24257,11125 24255,11125 24250,11125 24248,11125 24243,11125 24241,11125 24239,11125 24234,11125 24232,11127 24229,11127 24227,11127 24225,11127 24225,11127 24223,11127 24220,11130 24220,11130 24218,11130 24216,11130 24216,11130 24213,11132 24211,11132 24211,11132 24209,11132 24207,11134 24207,11134 24204,11134 24204,11136 24202,11136 24200,11139 24197,11139 24193,11141 24191,11143 24188,11146 24186,11148 24184,11150 24181,11152 24179,11155 24177,11157 24175,11159 24172,11162 24170,11164 24168,11166 24165,11171 L 24163,11173 C 24163,11175 24161,11178 24161,11178 24161,11180 24159,11180 24159,11182 24159,11184 24156,11184 24156,11187 24156,11189 24156,11189 24154,11191 24154,11194 24154,11194 24154,11196 24152,11198 24152,11203 24152,11205 24152,11210 24149,11212 24149,11214 24149,11219 24149,11221 24149,11226 Z"/>
        </g>
       </g>
      </g>
      <g class="com.sun.star.drawing.ClosedBezierShape">
       <g id="id44">
        <rect class="BoundingBox" stroke="none" fill="none" x="22528" y="9862" width="1365" height="1459"/>
        <path fill="rgb(0,0,0)" stroke="none" d="M 22873,10983 L 22713,11319 C 22713,11319 22590,11319 22528,11319 22761,10832 23230,9863 23230,9863 L 23891,11319 23710,11319 23555,10983 23484,10821 23223,10258 22951,10821 22873,10983 Z"/>
       </g>
      </g>
      <g class="com.sun.star.drawing.PolyPolygonShape">
       <g id="id45">
        <rect class="BoundingBox" stroke="none" fill="none" x="23111" y="10868" width="2" height="2"/>
        <path fill="rgb(0,0,0)" stroke="none" d="M 23111,10869 L 23111,10869 Z"/>
       </g>
      </g>
     </g>
    </g>
   </g>
  </g>
 </g>
</svg>