<?xml version="1.0" encoding="UTF-8"?>
<!DOCTYPE svg PUBLIC "-//W3C//DTD SVG 1.1//EN" "http://www.w3.org/Graphics/SVG/1.1/DTD/svg11.dtd">
<svg version="1.2" width="200mm" height="200mm" viewBox="0 0 20000 20000" preserveAspectRatio="xMidYMid" fill-rule="evenodd" stroke-width="28.222" stroke-linejoin="round" xmlns="http://www.w3.org/2000/svg" xmlns:ooo="http://xml.openoffice.org/svg/export" xmlns:xlink="http://www.w3.org/1999/xlink" xmlns:presentation="http://sun.com/xmlns/staroffice/presentation" xmlns:smil="http://www.w3.org/2001/SMIL20/" xmlns:anim="urn:oasis:names:tc:opendocument:xmlns:animation:1.0" xml:space="preserve">
 <defs class="ClipPathGroup">
  <clipPath id="presentation_clip_path" clipPathUnits="userSpaceOnUse">
   <rect x="0" y="0" width="20000" height="20000"/>
  </clipPath>
  <clipPath id="presentation_clip_path_shrink" clipPathUnits="userSpaceOnUse">
   <rect x="20" y="20" width="19960" height="19960"/>
  </clipPath>
 </defs>
 <defs class="TextShapeIndex">
  <g ooo:slide="id1" ooo:id-list="id3 id4 id5 id6 id7 id8"/>
 </defs>
 <defs class="EmbeddedBulletChars">
  <g id="bullet-char-template-57356" transform="scale(0.00048828125,-0.00048828125)">
   <path d="M 580,1141 L 1163,571 580,0 -4,571 580,1141 Z"/>
  </g>
  <g id="bullet-char-template-57354" transform="scale(0.00048828125,-0.00048828125)">
   <path d="M 8,1128 L 1137,1128 1137,0 8,0 8,1128 Z"/>
  </g>
  <g id="bullet-char-template-10146" transform="scale(0.00048828125,-0.00048828125)">
   <path d="M 174,0 L 602,739 174,1481 1456,739 174,0 Z M 1358,739 L 309,1346 659,739 1358,739 Z"/>
  </g>
  <g id="bullet-char-template-10132" transform="scale(0.00048828125,-0.00048828125)">
   <path d="M 2015,739 L 1276,0 717,0 1260,543 174,543 174,936 1260,936 717,1481 1274,1481 2015,739 Z"/>
  </g>
  <g id="bullet-char-template-10007" transform="scale(0.00048828125,-0.00048828125)">
   <path d="M 0,-2 C -7,14 -16,27 -25,37 L 356,567 C 262,823 215,952 215,954 215,979 228,992 255,992 264,992 276,990 289,987 310,991 331,999 354,1012 L 381,999 492,748 772,1049 836,1024 860,1049 C 881,1039 901,1025 922,1006 886,937 835,863 770,784 769,783 710,716 594,584 L 774,223 C 774,196 753,168 711,139 L 727,119 C 717,90 699,76 672,76 641,76 570,178 457,381 L 164,-76 C 142,-110 111,-127 72,-127 30,-127 9,-110 8,-76 1,-67 -2,-52 -2,-32 -2,-23 -1,-13 0,-2 Z"/>
  </g>
  <g id="bullet-char-template-10004" transform="scale(0.00048828125,-0.00048828125)">
   <path d="M 285,-33 C 182,-33 111,30 74,156 52,228 41,333 41,471 41,549 55,616 82,672 116,743 169,778 240,778 293,778 328,747 346,684 L 369,508 C 377,444 397,411 428,410 L 1163,1116 C 1174,1127 1196,1133 1229,1133 1271,1133 1292,1118 1292,1087 L 1292,965 C 1292,929 1282,901 1262,881 L 442,47 C 390,-6 338,-33 285,-33 Z"/>
  </g>
  <g id="bullet-char-template-9679" transform="scale(0.00048828125,-0.00048828125)">
   <path d="M 813,0 C 632,0 489,54 383,161 276,268 223,411 223,592 223,773 276,916 383,1023 489,1130 632,1184 813,1184 992,1184 1136,1130 1245,1023 1353,916 1407,772 1407,592 1407,412 1353,268 1245,161 1136,54 992,0 813,0 Z"/>
  </g>
  <g id="bullet-char-template-8226" transform="scale(0.00048828125,-0.00048828125)">
   <path d="M 346,457 C 273,457 209,483 155,535 101,586 74,649 74,723 74,796 101,859 155,911 209,963 273,989 346,989 419,989 480,963 531,910 582,859 608,796 608,723 608,648 583,586 532,535 482,483 420,457 346,457 Z"/>
  </g>
  <g id="bullet-char-template-8211" transform="scale(0.00048828125,-0.00048828125)">
   <path d="M -4,459 L 1135,459 1135,606 -4,606 -4,459 Z"/>
  </g>
  <g id="bullet-char-template-61548" transform="scale(0.00048828125,-0.00048828125)">
   <path d="M 173,740 C 173,903 231,1043 346,1159 462,1274 601,1332 765,1332 928,1332 1067,1274 1183,1159 1299,1043 1357,903 1357,740 1357,577 1299,437 1183,322 1067,206 928,148 765,148 601,148 462,206 346,322 231,437 173,577 173,740 Z"/>
  </g>
 </defs>
 <g>
  <g id="id2" class="Master_Slide">
   <g id="bg-id2" class="Background"/>
   <g id="bo-id2" class="BackgroundObjects"/>
  </g>
 </g>
 <g class="SlideGroup">
  <g>
   <g id="container-id1">
    <g id="id1" class="Slide" clip-path="url(#presentation_clip_path)">
     <g class="Page">
      <g class="com.sun.star.drawing.LineShape">
       <g id="id3">
        <rect class="BoundingBox" stroke="none" fill="none" x="-8" y="8" width="1" height="20002"/>
       </g>
      </g>
      <g class="com.sun.star.drawing.LineShape">
       <g id="id4">
        <rect class="BoundingBox" stroke="none" fill="none" x="-8" y="20009" width="20002" height="1"/>
       </g>
      </g>
      <g class="com.sun.star.drawing.LineShape">
       <g id="id5">
        <rect class="BoundingBox" stroke="none" fill="none" x="19993" y="8" width="1" height="20002"/>
       </g>
      </g>
      <g class="com.sun.star.drawing.LineShape">
       <g id="id6">
        <rect class="BoundingBox" stroke="none" fill="none" x="-8" y="8" width="20002" height="1"/>
       </g>
      </g>
      <g class="com.sun.star.drawing.ClosedBezierShape">
       <g id="id7">
        <rect class="BoundingBox" stroke="none" fill="none" x="3895" y="8302" width="12199" height="3038"/>
        <g>
         <defs>
          <linearGradient id="gradient1" x1="4120" y1="7682" x2="15867" y2="11958" gradientUnits="userSpaceOnUse">
           <stop offset="0" style="stop-color:rgb(212,179,144)"/>
           <stop offset="1" style="stop-color:rgb(159,124,86)"/>
          </linearGradient>
         </defs>
         <path style="fill:url(#gradient1)" d="M 8928,8936 L 8931,8920 8935,8906 8938,8900 8940,8894 8943,8888 8946,8883 8949,8878 8953,8873 8956,8869 8960,8865 8964,8861 8968,8858 8973,8855 8977,8853 8987,8849 8997,8847 9007,8845 9011,8844 9016,8844 9021,8844 9026,8845 9031,8845 9036,8846 9041,8847 9046,8848 9050,8850 9055,8852 9065,8856 9075,8861 9084,8867 9093,8874 9101,8881 9109,8890 9117,8899 9124,8909 9131,8920 9137,8931 9141,8942 9145,8954 9148,8966 9149,8978 9150,8991 9149,9004 9143,9033 9137,9066 9124,9146 9118,9191 9112,9239 9101,9344 9086,9579 9080,9830 9081,9870 9083,9913 9087,9959 9092,10008 9099,10059 9107,10109 9117,10159 9128,10209 9142,10257 9157,10304 9173,10348 9191,10390 9201,10410 9212,10428 9223,10445 9236,10461 9248,10475 9262,10488 9276,10499 9290,10509 9298,10513 9306,10517 9314,10520 9322,10523 9331,10526 9339,10528 9348,10529 9357,10530 9366,10531 9375,10531 9394,10530 9414,10527 9434,10522 9444,10519 9455,10515 9476,10505 9499,10492 9522,10476 9546,10458 9571,10436 9597,10411 9623,10384 9675,10329 9727,10269 9779,10206 9831,10138 9883,10068 9933,9996 10030,9848 10203,9541 10242,9465 10278,9391 10311,9319 10341,9249 10343,9246 10344,9243 10346,9240 10348,9238 10350,9236 10352,9235 10354,9234 10356,9233 10358,9233 10360,9233 10362,9233 10365,9233 10367,9234 10370,9236 10373,9237 10375,9239 10381,9243 10383,9246 10385,9248 10387,9250 10389,9252 10390,9254 10391,9256 10392,9258 10393,9260 10393,9262 10393,9264 10393,9266 10393,9268 10392,9270 10391,9272 10251,9568 10075,9886 10028,9965 9979,10041 9929,10116 9877,10190 9825,10260 9772,10325 9719,10386 9665,10442 9630,10476 9597,10508 9563,10536 9531,10561 9500,10583 9470,10601 9441,10617 9413,10629 9388,10638 9363,10644 9339,10649 9316,10652 9293,10652 9271,10651 9249,10648 9228,10643 9074,10666 8919,10675 8763,10671 8607,10654 8450,10626 8293,10587 7978,10483 7664,10348 7350,10192 6729,9847 6251,9578 6017,9455 5787,9346 5562,9254 5342,9183 5234,9157 5128,9138 5023,9126 4920,9122 4771,9132 4630,9162 4499,9210 4379,9275 4271,9354 4176,9446 4096,9549 4031,9663 3982,9784 3950,9912 3937,10046 3944,10182 3971,10320 4020,10459 4092,10595 4187,10729 4083,10607 4002,10477 3944,10341 3909,10201 3895,10059 3902,9918 3929,9780 3974,9648 4038,9522 4119,9406 4216,9302 4329,9212 4457,9138 4599,9082 4753,9047 4920,9035 5027,9039 5136,9051 5246,9071 5357,9097 5583,9169 5813,9262 6048,9373 6286,9498 6771,9771 7357,10098 7653,10248 7949,10378 8244,10483 8391,10523 8538,10555 8684,10577 8829,10588 8974,10587 9117,10574 9105,10561 9093,10547 9081,10532 9069,10516 9054,10493 9040,10469 9026,10445 9013,10420 9001,10394 8989,10367 8978,10339 8968,10310 8949,10251 8932,10190 8918,10129 8906,10065 8897,10002 8889,9942 8883,9883 8878,9827 8872,9551 8882,9295 8891,9183 8897,9131 8903,9083 8916,8999 8922,8965 8928,8936 Z M 10870,9917 L 11158,9881 11445,9885 11732,9925 12019,9995 12304,10089 12589,10203 13153,10469 13709,10749 14254,11001 14521,11103 14785,11183 15045,11235 15301,11253 15460,11245 15598,11221 15715,11183 15767,11159 15814,11131 15856,11101 15893,11068 15926,11032 15954,10994 15978,10953 15998,10910 16013,10865 16024,10818 16031,10769 16034,10719 16028,10614 16007,10504 15971,10391 15921,10275 15857,10158 15780,10041 15691,9926 15795,10039 15883,10155 15957,10274 16016,10394 16058,10514 16084,10631 16092,10744 16090,10799 16083,10853 16072,10904 16056,10954 16035,11001 16009,11047 15979,11089 15943,11130 15903,11167 15857,11201 15806,11232 15750,11259 15623,11302 15473,11330 15301,11339 15044,11321 14783,11270 14518,11191 14249,11090 13704,10840 13150,10562 12590,10297 12309,10183 12027,10088 11745,10016 11464,9974 11184,9966 10904,9998 10920,10058 10934,10119 10944,10179 10952,10239 10958,10303 10961,10366 10960,10428 10959,10458 10956,10487 10953,10516 10948,10545 10943,10574 10937,10602 10930,10629 10921,10656 10912,10683 10902,10709 10891,10734 10879,10759 10867,10783 10853,10806 10838,10828 10822,10849 10806,10869 10788,10889 10768,10909 10746,10928 10725,10945 10702,10961 10679,10975 10655,10988 10630,10999 10604,11009 10579,11017 10554,11023 10528,11028 10503,11030 10479,11030 10454,11029 10430,11025 10406,11020 10383,11013 10360,11004 10338,10992 10317,10978 10297,10962 10278,10944 10260,10923 10242,10900 10226,10875 10212,10847 10199,10817 10189,10784 10180,10748 10173,10710 10168,10669 10165,10625 10165,10559 10168,10497 10176,10440 10189,10385 10206,10335 10227,10288 10252,10244 10282,10204 10315,10166 10353,10131 10395,10099 10440,10070 10490,10042 10543,10018 10660,9974 10628,9903 10596,9835 10562,9767 10524,9696 10370,9402 10334,9329 10301,9257 10270,9184 10242,9111 10230,9075 10218,9039 10208,9003 10200,8967 10193,8931 10187,8896 10183,8860 10180,8825 10179,8778 10180,8733 10184,8691 10190,8652 10199,8615 10210,8581 10224,8550 10232,8535 10240,8521 10258,8495 10276,8473 10295,8453 10314,8436 10323,8428 10333,8421 10343,8415 10352,8410 10362,8405 10372,8401 10382,8398 10392,8395 10403,8393 10413,8392 10423,8392 10432,8393 10442,8394 10452,8396 10461,8399 10470,8403 10480,8407 10489,8412 10498,8418 10506,8425 10515,8433 10524,8441 10540,8460 10548,8471 10555,8482 10561,8495 10567,8508 10572,8522 10576,8537 10580,8553 10583,8570 10587,8605 10588,8645 10587,8687 10582,8733 10575,8784 10565,8834 10553,8884 10538,8932 10475,9123 10516,9229 10562,9332 10613,9434 10669,9533 10724,9627 10776,9722 10825,9819 10870,9917 Z M 9111,8302 L 9124,8303 9137,8304 9149,8307 9155,8309 9160,8311 9166,8313 9171,8316 9182,8322 9192,8330 9201,8338 9206,8343 9210,8348 9214,8353 9217,8358 9220,8364 9223,8370 9226,8376 9228,8382 9232,8396 9235,8411 9237,8426 9237,8443 9237,8458 9235,8472 9232,8486 9230,8492 9227,8499 9225,8505 9222,8511 9219,8516 9215,8522 9211,8527 9207,8532 9202,8537 9197,8542 9187,8551 9176,8559 9165,8565 9159,8568 9154,8571 9148,8573 9142,8575 9129,8578 9117,8579 9103,8580 9089,8579 9076,8576 9063,8572 9051,8567 9039,8561 9028,8554 9018,8546 9008,8536 9004,8531 8999,8526 8995,8520 8991,8515 8988,8509 8985,8503 8982,8497 8980,8490 8975,8477 8973,8462 8971,8447 8970,8431 8971,8415 8973,8399 8974,8392 8976,8385 8978,8379 8981,8372 8984,8366 8987,8360 8990,8355 8994,8350 8998,8345 9002,8340 9007,8336 9012,8332 9023,8325 9034,8319 9046,8314 9058,8310 9071,8306 9084,8304 9097,8302 9111,8302 Z M 10444,9054 L 10454,9010 10465,8968 10477,8928 10490,8888 10497,8868 10502,8848 10508,8828 10512,8807 10519,8765 10524,8722 10527,8700 10529,8679 10530,8659 10530,8640 10529,8622 10528,8606 10525,8591 10522,8577 10519,8564 10515,8553 10511,8542 10507,8534 10504,8530 10502,8526 10499,8523 10497,8520 10494,8518 10492,8515 10489,8513 10486,8512 10483,8511 10481,8510 10478,8509 10475,8509 10472,8509 10469,8510 10466,8511 10463,8512 10460,8514 10457,8516 10454,8518 10451,8521 10448,8524 10445,8528 10438,8536 10432,8546 10427,8558 10421,8571 10416,8587 10411,8603 10406,8622 10402,8642 10398,8664 10394,8688 10391,8712 10389,8736 10388,8761 10388,8785 10389,8810 10391,8834 10394,8859 10403,8908 10415,8957 10428,9006 10444,9054 Z M 10700,10063 L 10584,10099 10532,10118 10484,10140 10439,10163 10399,10189 10362,10217 10329,10248 10301,10281 10276,10319 10255,10359 10238,10404 10225,10452 10216,10505 10212,10563 10211,10625 10213,10668 10217,10709 10224,10746 10232,10780 10242,10810 10248,10824 10254,10838 10261,10850 10269,10862 10277,10873 10285,10883 10304,10901 10313,10909 10322,10916 10332,10923 10341,10929 10351,10934 10361,10939 10371,10942 10382,10946 10392,10948 10403,10950 10413,10951 10424,10951 10435,10951 10446,10950 10457,10948 10469,10946 10480,10942 10491,10939 10502,10934 10513,10929 10535,10916 10557,10901 10579,10883 10601,10862 10622,10839 10643,10813 10662,10785 10679,10754 10694,10722 10708,10686 10720,10649 10730,10610 10738,10568 10743,10535 10747,10502 10750,10469 10752,10436 10753,10402 10753,10368 10751,10334 10748,10300 10741,10236 10731,10178 10725,10150 10718,10122 10710,10093 10700,10063 Z"/>
        </g>
       </g>
      </g>
      <g class="com.sun.star.drawing.ClosedBezierShape">
       <g id="id8">
        <rect class="BoundingBox" stroke="none" fill="none" x="6345" y="6933" width="7297" height="4449"/>
        <g>
         <defs>
          <linearGradient id="gradient2" x1="6057" y1="7724" x2="13929" y2="10590" gradientUnits="userSpaceOnUse">
           <stop offset="0" style="stop-color:rgb(212,179,144)"/>
           <stop offset="1" style="stop-color:rgb(159,124,86)"/>
          </linearGradient>
         </defs>
         <path style="fill:url(#gradient2)" d="M 6431,11381 L 6394,11188 6367,10991 6351,10791 6345,10588 6347,10460 6354,10333 6364,10207 6379,10083 6421,10107 6406,10226 6396,10346 6389,10467 6387,10588 6393,10791 6410,10990 6439,11187 6478,11379 6431,11381 Z M 6604,9232 L 6714,8984 6841,8746 6985,8519 7145,8304 7320,8101 7509,7912 7711,7737 7926,7577 8152,7433 8390,7305 8638,7195 8895,7103 9160,7030 9433,6976 9713,6944 9999,6933 10354,6950 10700,7000 11034,7082 11355,7193 11662,7333 11953,7499 12227,7691 12481,7906 12715,8143 12926,8400 13114,8677 13277,8971 13412,9280 13519,9604 13596,9940 13641,10287 13595,10262 13548,9930 13469,9608 13362,9299 13227,9003 13066,8722 12880,8458 12671,8212 12440,7986 12189,7780 11920,7597 11634,7438 11332,7305 11016,7199 10687,7121 10348,7073 9999,7057 9718,7068 9443,7099 9174,7149 8913,7219 8660,7307 8416,7413 8182,7535 7959,7674 7747,7827 7548,7995 7361,8176 7189,8370 7031,8576 6888,8793 6761,9021 6652,9259 6604,9232 Z M 13600,11212 L 13567,11381 13520,11379 13558,11191 13600,11212 Z"/>
        </g>
       </g>
      </g>
     </g>
    </g>
   </g>
  </g>
 </g>
</svg>